G04 #@! TF.GenerationSoftware,KiCad,Pcbnew,(5.1.5)-3*
G04 #@! TF.CreationDate,2020-06-17T19:37:57+02:00*
G04 #@! TF.ProjectId,LowBatAlarm,4c6f7742-6174-4416-9c61-726d2e6b6963,rev?*
G04 #@! TF.SameCoordinates,Original*
G04 #@! TF.FileFunction,Legend,Top*
G04 #@! TF.FilePolarity,Positive*
%FSLAX46Y46*%
G04 Gerber Fmt 4.6, Leading zero omitted, Abs format (unit mm)*
G04 Created by KiCad (PCBNEW (5.1.5)-3) date 2020-06-17 19:37:57*
%MOMM*%
%LPD*%
G04 APERTURE LIST*
%ADD10C,0.150000*%
%ADD11C,0.120000*%
G04 APERTURE END LIST*
D10*
X146190476Y-92928571D02*
X146333333Y-92976190D01*
X146380952Y-93023809D01*
X146428571Y-93119047D01*
X146428571Y-93261904D01*
X146380952Y-93357142D01*
X146333333Y-93404761D01*
X146238095Y-93452380D01*
X145857142Y-93452380D01*
X145857142Y-92452380D01*
X146190476Y-92452380D01*
X146285714Y-92500000D01*
X146333333Y-92547619D01*
X146380952Y-92642857D01*
X146380952Y-92738095D01*
X146333333Y-92833333D01*
X146285714Y-92880952D01*
X146190476Y-92928571D01*
X145857142Y-92928571D01*
X147285714Y-92785714D02*
X147285714Y-93452380D01*
X146857142Y-92785714D02*
X146857142Y-93309523D01*
X146904761Y-93404761D01*
X147000000Y-93452380D01*
X147142857Y-93452380D01*
X147238095Y-93404761D01*
X147285714Y-93357142D01*
X147666666Y-92785714D02*
X148190476Y-92785714D01*
X147666666Y-93452380D01*
X148190476Y-93452380D01*
X148476190Y-92785714D02*
X149000000Y-92785714D01*
X148476190Y-93452380D01*
X149000000Y-93452380D01*
X149380952Y-93071428D02*
X150142857Y-93071428D01*
X146190476Y-102928571D02*
X146333333Y-102976190D01*
X146380952Y-103023809D01*
X146428571Y-103119047D01*
X146428571Y-103261904D01*
X146380952Y-103357142D01*
X146333333Y-103404761D01*
X146238095Y-103452380D01*
X145857142Y-103452380D01*
X145857142Y-102452380D01*
X146190476Y-102452380D01*
X146285714Y-102500000D01*
X146333333Y-102547619D01*
X146380952Y-102642857D01*
X146380952Y-102738095D01*
X146333333Y-102833333D01*
X146285714Y-102880952D01*
X146190476Y-102928571D01*
X145857142Y-102928571D01*
X147285714Y-102785714D02*
X147285714Y-103452380D01*
X146857142Y-102785714D02*
X146857142Y-103309523D01*
X146904761Y-103404761D01*
X147000000Y-103452380D01*
X147142857Y-103452380D01*
X147238095Y-103404761D01*
X147285714Y-103357142D01*
X147666666Y-102785714D02*
X148190476Y-102785714D01*
X147666666Y-103452380D01*
X148190476Y-103452380D01*
X148476190Y-102785714D02*
X149000000Y-102785714D01*
X148476190Y-103452380D01*
X149000000Y-103452380D01*
X149380952Y-103071428D02*
X150142857Y-103071428D01*
X149761904Y-103452380D02*
X149761904Y-102690476D01*
X125714285Y-92928571D02*
X125857142Y-92976190D01*
X125904761Y-93023809D01*
X125952380Y-93119047D01*
X125952380Y-93261904D01*
X125904761Y-93357142D01*
X125857142Y-93404761D01*
X125761904Y-93452380D01*
X125380952Y-93452380D01*
X125380952Y-92452380D01*
X125714285Y-92452380D01*
X125809523Y-92500000D01*
X125857142Y-92547619D01*
X125904761Y-92642857D01*
X125904761Y-92738095D01*
X125857142Y-92833333D01*
X125809523Y-92880952D01*
X125714285Y-92928571D01*
X125380952Y-92928571D01*
X126809523Y-93452380D02*
X126809523Y-92928571D01*
X126761904Y-92833333D01*
X126666666Y-92785714D01*
X126476190Y-92785714D01*
X126380952Y-92833333D01*
X126809523Y-93404761D02*
X126714285Y-93452380D01*
X126476190Y-93452380D01*
X126380952Y-93404761D01*
X126333333Y-93309523D01*
X126333333Y-93214285D01*
X126380952Y-93119047D01*
X126476190Y-93071428D01*
X126714285Y-93071428D01*
X126809523Y-93023809D01*
X127142857Y-92785714D02*
X127523809Y-92785714D01*
X127285714Y-92452380D02*
X127285714Y-93309523D01*
X127333333Y-93404761D01*
X127428571Y-93452380D01*
X127523809Y-93452380D01*
X127857142Y-93071428D02*
X128619047Y-93071428D01*
X125714285Y-102928571D02*
X125857142Y-102976190D01*
X125904761Y-103023809D01*
X125952380Y-103119047D01*
X125952380Y-103261904D01*
X125904761Y-103357142D01*
X125857142Y-103404761D01*
X125761904Y-103452380D01*
X125380952Y-103452380D01*
X125380952Y-102452380D01*
X125714285Y-102452380D01*
X125809523Y-102500000D01*
X125857142Y-102547619D01*
X125904761Y-102642857D01*
X125904761Y-102738095D01*
X125857142Y-102833333D01*
X125809523Y-102880952D01*
X125714285Y-102928571D01*
X125380952Y-102928571D01*
X126809523Y-103452380D02*
X126809523Y-102928571D01*
X126761904Y-102833333D01*
X126666666Y-102785714D01*
X126476190Y-102785714D01*
X126380952Y-102833333D01*
X126809523Y-103404761D02*
X126714285Y-103452380D01*
X126476190Y-103452380D01*
X126380952Y-103404761D01*
X126333333Y-103309523D01*
X126333333Y-103214285D01*
X126380952Y-103119047D01*
X126476190Y-103071428D01*
X126714285Y-103071428D01*
X126809523Y-103023809D01*
X127142857Y-102785714D02*
X127523809Y-102785714D01*
X127285714Y-102452380D02*
X127285714Y-103309523D01*
X127333333Y-103404761D01*
X127428571Y-103452380D01*
X127523809Y-103452380D01*
X127857142Y-103071428D02*
X128619047Y-103071428D01*
X128238095Y-103452380D02*
X128238095Y-102690476D01*
X132476190Y-87203571D02*
X132619047Y-87251190D01*
X132666666Y-87298809D01*
X132714285Y-87394047D01*
X132714285Y-87536904D01*
X132666666Y-87632142D01*
X132619047Y-87679761D01*
X132523809Y-87727380D01*
X132142857Y-87727380D01*
X132142857Y-86727380D01*
X132476190Y-86727380D01*
X132571428Y-86775000D01*
X132619047Y-86822619D01*
X132666666Y-86917857D01*
X132666666Y-87013095D01*
X132619047Y-87108333D01*
X132571428Y-87155952D01*
X132476190Y-87203571D01*
X132142857Y-87203571D01*
X133571428Y-87727380D02*
X133571428Y-87203571D01*
X133523809Y-87108333D01*
X133428571Y-87060714D01*
X133238095Y-87060714D01*
X133142857Y-87108333D01*
X133571428Y-87679761D02*
X133476190Y-87727380D01*
X133238095Y-87727380D01*
X133142857Y-87679761D01*
X133095238Y-87584523D01*
X133095238Y-87489285D01*
X133142857Y-87394047D01*
X133238095Y-87346428D01*
X133476190Y-87346428D01*
X133571428Y-87298809D01*
X133904761Y-87060714D02*
X134285714Y-87060714D01*
X134047619Y-86727380D02*
X134047619Y-87584523D01*
X134095238Y-87679761D01*
X134190476Y-87727380D01*
X134285714Y-87727380D01*
X134619047Y-87727380D02*
X134619047Y-87060714D01*
X134619047Y-87155952D02*
X134666666Y-87108333D01*
X134761904Y-87060714D01*
X134904761Y-87060714D01*
X135000000Y-87108333D01*
X135047619Y-87203571D01*
X135047619Y-87727380D01*
X135047619Y-87203571D02*
X135095238Y-87108333D01*
X135190476Y-87060714D01*
X135333333Y-87060714D01*
X135428571Y-87108333D01*
X135476190Y-87203571D01*
X135476190Y-87727380D01*
X136095238Y-87727380D02*
X136000000Y-87679761D01*
X135952380Y-87632142D01*
X135904761Y-87536904D01*
X135904761Y-87251190D01*
X135952380Y-87155952D01*
X136000000Y-87108333D01*
X136095238Y-87060714D01*
X136238095Y-87060714D01*
X136333333Y-87108333D01*
X136380952Y-87155952D01*
X136428571Y-87251190D01*
X136428571Y-87536904D01*
X136380952Y-87632142D01*
X136333333Y-87679761D01*
X136238095Y-87727380D01*
X136095238Y-87727380D01*
X136857142Y-87060714D02*
X136857142Y-87727380D01*
X136857142Y-87155952D02*
X136904761Y-87108333D01*
X137000000Y-87060714D01*
X137142857Y-87060714D01*
X137238095Y-87108333D01*
X137285714Y-87203571D01*
X137285714Y-87727380D01*
X137761904Y-87727380D02*
X137761904Y-87060714D01*
X137761904Y-86727380D02*
X137714285Y-86775000D01*
X137761904Y-86822619D01*
X137809523Y-86775000D01*
X137761904Y-86727380D01*
X137761904Y-86822619D01*
X138095238Y-87060714D02*
X138476190Y-87060714D01*
X138238095Y-86727380D02*
X138238095Y-87584523D01*
X138285714Y-87679761D01*
X138380952Y-87727380D01*
X138476190Y-87727380D01*
X138952380Y-87727380D02*
X138857142Y-87679761D01*
X138809523Y-87632142D01*
X138761904Y-87536904D01*
X138761904Y-87251190D01*
X138809523Y-87155952D01*
X138857142Y-87108333D01*
X138952380Y-87060714D01*
X139095238Y-87060714D01*
X139190476Y-87108333D01*
X139238095Y-87155952D01*
X139285714Y-87251190D01*
X139285714Y-87536904D01*
X139238095Y-87632142D01*
X139190476Y-87679761D01*
X139095238Y-87727380D01*
X138952380Y-87727380D01*
X139714285Y-87727380D02*
X139714285Y-87060714D01*
X139714285Y-87251190D02*
X139761904Y-87155952D01*
X139809523Y-87108333D01*
X139904761Y-87060714D01*
X140000000Y-87060714D01*
X131428571Y-88425000D02*
X131333333Y-88377380D01*
X131190476Y-88377380D01*
X131047619Y-88425000D01*
X130952380Y-88520238D01*
X130904761Y-88615476D01*
X130857142Y-88805952D01*
X130857142Y-88948809D01*
X130904761Y-89139285D01*
X130952380Y-89234523D01*
X131047619Y-89329761D01*
X131190476Y-89377380D01*
X131285714Y-89377380D01*
X131428571Y-89329761D01*
X131476190Y-89282142D01*
X131476190Y-88948809D01*
X131285714Y-88948809D01*
X132285714Y-89329761D02*
X132190476Y-89377380D01*
X132000000Y-89377380D01*
X131904761Y-89329761D01*
X131857142Y-89234523D01*
X131857142Y-88853571D01*
X131904761Y-88758333D01*
X132000000Y-88710714D01*
X132190476Y-88710714D01*
X132285714Y-88758333D01*
X132333333Y-88853571D01*
X132333333Y-88948809D01*
X131857142Y-89044047D01*
X132761904Y-89377380D02*
X132761904Y-88710714D01*
X132761904Y-88901190D02*
X132809523Y-88805952D01*
X132857142Y-88758333D01*
X132952380Y-88710714D01*
X133047619Y-88710714D01*
X133238095Y-88710714D02*
X133619047Y-88710714D01*
X133380952Y-88377380D02*
X133380952Y-89234523D01*
X133428571Y-89329761D01*
X133523809Y-89377380D01*
X133619047Y-89377380D01*
X135190476Y-89377380D02*
X134714285Y-89377380D01*
X134714285Y-88377380D01*
X135952380Y-89377380D02*
X135952380Y-88853571D01*
X135904761Y-88758333D01*
X135809523Y-88710714D01*
X135619047Y-88710714D01*
X135523809Y-88758333D01*
X135952380Y-89329761D02*
X135857142Y-89377380D01*
X135619047Y-89377380D01*
X135523809Y-89329761D01*
X135476190Y-89234523D01*
X135476190Y-89139285D01*
X135523809Y-89044047D01*
X135619047Y-88996428D01*
X135857142Y-88996428D01*
X135952380Y-88948809D01*
X136857142Y-88710714D02*
X136857142Y-89377380D01*
X136428571Y-88710714D02*
X136428571Y-89234523D01*
X136476190Y-89329761D01*
X136571428Y-89377380D01*
X136714285Y-89377380D01*
X136809523Y-89329761D01*
X136857142Y-89282142D01*
X137333333Y-89377380D02*
X137333333Y-88710714D01*
X137333333Y-88901190D02*
X137380952Y-88805952D01*
X137428571Y-88758333D01*
X137523809Y-88710714D01*
X137619047Y-88710714D01*
X137952380Y-89377380D02*
X137952380Y-88710714D01*
X137952380Y-88377380D02*
X137904761Y-88425000D01*
X137952380Y-88472619D01*
X138000000Y-88425000D01*
X137952380Y-88377380D01*
X137952380Y-88472619D01*
X138285714Y-88710714D02*
X138666666Y-88710714D01*
X138428571Y-88377380D02*
X138428571Y-89234523D01*
X138476190Y-89329761D01*
X138571428Y-89377380D01*
X138666666Y-89377380D01*
X138952380Y-89329761D02*
X139047619Y-89377380D01*
X139238095Y-89377380D01*
X139333333Y-89329761D01*
X139380952Y-89234523D01*
X139380952Y-89186904D01*
X139333333Y-89091666D01*
X139238095Y-89044047D01*
X139095238Y-89044047D01*
X139000000Y-88996428D01*
X138952380Y-88901190D01*
X138952380Y-88853571D01*
X139000000Y-88758333D01*
X139095238Y-88710714D01*
X139238095Y-88710714D01*
X139333333Y-88758333D01*
X140190476Y-89329761D02*
X140095238Y-89377380D01*
X139904761Y-89377380D01*
X139809523Y-89329761D01*
X139761904Y-89234523D01*
X139761904Y-88853571D01*
X139809523Y-88758333D01*
X139904761Y-88710714D01*
X140095238Y-88710714D01*
X140190476Y-88758333D01*
X140238095Y-88853571D01*
X140238095Y-88948809D01*
X139761904Y-89044047D01*
X140666666Y-88710714D02*
X140666666Y-89377380D01*
X140666666Y-88805952D02*
X140714285Y-88758333D01*
X140809523Y-88710714D01*
X140952380Y-88710714D01*
X141047619Y-88758333D01*
X141095238Y-88853571D01*
X141095238Y-89377380D01*
D11*
X139490000Y-91303922D02*
X139490000Y-91821078D01*
X140910000Y-91303922D02*
X140910000Y-91821078D01*
X143321078Y-99290000D02*
X142803922Y-99290000D01*
X143321078Y-100710000D02*
X142803922Y-100710000D01*
X136290000Y-100003922D02*
X136290000Y-100521078D01*
X137710000Y-100003922D02*
X137710000Y-100521078D01*
X141350000Y-108400000D02*
X141350000Y-103000000D01*
X144650000Y-108400000D02*
X144650000Y-103000000D01*
X141350000Y-108400000D02*
X144650000Y-108400000D01*
X132670000Y-101060000D02*
X132670000Y-99600000D01*
X135830000Y-101060000D02*
X135830000Y-98900000D01*
X135830000Y-101060000D02*
X134900000Y-101060000D01*
X132670000Y-101060000D02*
X133600000Y-101060000D01*
X135390000Y-105410000D02*
X135390000Y-107840000D01*
X138460000Y-107170000D02*
X138460000Y-105410000D01*
X134710000Y-108321078D02*
X134710000Y-107803922D01*
X133290000Y-108321078D02*
X133290000Y-107803922D01*
X134710000Y-104321078D02*
X134710000Y-103803922D01*
X133290000Y-104321078D02*
X133290000Y-103803922D01*
X134678922Y-94710000D02*
X135196078Y-94710000D01*
X134678922Y-93290000D02*
X135196078Y-93290000D01*
X134678922Y-96710000D02*
X135196078Y-96710000D01*
X134678922Y-95290000D02*
X135196078Y-95290000D01*
X139810000Y-95525000D02*
X139810000Y-94125000D01*
X137490000Y-94125000D02*
X137490000Y-96025000D01*
X142678922Y-91510000D02*
X143196078Y-91510000D01*
X142678922Y-90090000D02*
X143196078Y-90090000D01*
X143760000Y-98580000D02*
X142300000Y-98580000D01*
X143760000Y-95420000D02*
X141600000Y-95420000D01*
X143760000Y-95420000D02*
X143760000Y-96350000D01*
X143760000Y-98580000D02*
X143760000Y-97650000D01*
X146570000Y-96660000D02*
X145970000Y-96660000D01*
X146570000Y-98260000D02*
X146570000Y-96660000D01*
X145970000Y-98260000D02*
X146570000Y-98260000D01*
X146570000Y-99200000D02*
X145970000Y-99200000D01*
X146570000Y-100800000D02*
X146570000Y-99200000D01*
X145970000Y-100800000D02*
X146570000Y-100800000D01*
X151990000Y-97710000D02*
X150990000Y-97710000D01*
X151990000Y-99750000D02*
X150990000Y-99750000D01*
X150460000Y-97710000D02*
X150990000Y-97460000D01*
X150460000Y-99750000D02*
X150460000Y-97710000D01*
X150990000Y-100000000D02*
X150460000Y-99750000D01*
X150990000Y-97460000D02*
X151990000Y-97460000D01*
X150990000Y-100000000D02*
X150990000Y-97460000D01*
X151990000Y-100000000D02*
X150990000Y-100000000D01*
X147000000Y-101670000D02*
X151000000Y-101670000D01*
X145970000Y-96080000D02*
X145970000Y-101380000D01*
X151990000Y-96080000D02*
X145970000Y-96080000D01*
X151990000Y-101380000D02*
X151990000Y-96080000D01*
X145970000Y-101380000D02*
X151990000Y-101380000D01*
X126570000Y-96660000D02*
X125970000Y-96660000D01*
X126570000Y-98260000D02*
X126570000Y-96660000D01*
X125970000Y-98260000D02*
X126570000Y-98260000D01*
X126570000Y-99200000D02*
X125970000Y-99200000D01*
X126570000Y-100800000D02*
X126570000Y-99200000D01*
X125970000Y-100800000D02*
X126570000Y-100800000D01*
X131990000Y-97710000D02*
X130990000Y-97710000D01*
X131990000Y-99750000D02*
X130990000Y-99750000D01*
X130460000Y-97710000D02*
X130990000Y-97460000D01*
X130460000Y-99750000D02*
X130460000Y-97710000D01*
X130990000Y-100000000D02*
X130460000Y-99750000D01*
X130990000Y-97460000D02*
X131990000Y-97460000D01*
X130990000Y-100000000D02*
X130990000Y-97460000D01*
X131990000Y-100000000D02*
X130990000Y-100000000D01*
X127000000Y-101670000D02*
X131000000Y-101670000D01*
X125970000Y-96080000D02*
X125970000Y-101380000D01*
X131990000Y-96080000D02*
X125970000Y-96080000D01*
X131990000Y-101380000D02*
X131990000Y-96080000D01*
X125970000Y-101380000D02*
X131990000Y-101380000D01*
X141252500Y-93860000D02*
X143937500Y-93860000D01*
X141252500Y-91940000D02*
X141252500Y-93860000D01*
X143937500Y-91940000D02*
X141252500Y-91940000D01*
D10*
X138952380Y-91466666D02*
X138476190Y-91800000D01*
X138952380Y-92038095D02*
X137952380Y-92038095D01*
X137952380Y-91657142D01*
X138000000Y-91561904D01*
X138047619Y-91514285D01*
X138142857Y-91466666D01*
X138285714Y-91466666D01*
X138380952Y-91514285D01*
X138428571Y-91561904D01*
X138476190Y-91657142D01*
X138476190Y-92038095D01*
X137952380Y-90609523D02*
X137952380Y-90800000D01*
X138000000Y-90895238D01*
X138047619Y-90942857D01*
X138190476Y-91038095D01*
X138380952Y-91085714D01*
X138761904Y-91085714D01*
X138857142Y-91038095D01*
X138904761Y-90990476D01*
X138952380Y-90895238D01*
X138952380Y-90704761D01*
X138904761Y-90609523D01*
X138857142Y-90561904D01*
X138761904Y-90514285D01*
X138523809Y-90514285D01*
X138428571Y-90561904D01*
X138380952Y-90609523D01*
X138333333Y-90704761D01*
X138333333Y-90895238D01*
X138380952Y-90990476D01*
X138428571Y-91038095D01*
X138523809Y-91085714D01*
X140233333Y-100652380D02*
X139900000Y-100176190D01*
X139661904Y-100652380D02*
X139661904Y-99652380D01*
X140042857Y-99652380D01*
X140138095Y-99700000D01*
X140185714Y-99747619D01*
X140233333Y-99842857D01*
X140233333Y-99985714D01*
X140185714Y-100080952D01*
X140138095Y-100128571D01*
X140042857Y-100176190D01*
X139661904Y-100176190D01*
X141138095Y-99652380D02*
X140661904Y-99652380D01*
X140614285Y-100128571D01*
X140661904Y-100080952D01*
X140757142Y-100033333D01*
X140995238Y-100033333D01*
X141090476Y-100080952D01*
X141138095Y-100128571D01*
X141185714Y-100223809D01*
X141185714Y-100461904D01*
X141138095Y-100557142D01*
X141090476Y-100604761D01*
X140995238Y-100652380D01*
X140757142Y-100652380D01*
X140661904Y-100604761D01*
X140614285Y-100557142D01*
X139102380Y-100429166D02*
X138626190Y-100762500D01*
X139102380Y-101000595D02*
X138102380Y-101000595D01*
X138102380Y-100619642D01*
X138150000Y-100524404D01*
X138197619Y-100476785D01*
X138292857Y-100429166D01*
X138435714Y-100429166D01*
X138530952Y-100476785D01*
X138578571Y-100524404D01*
X138626190Y-100619642D01*
X138626190Y-101000595D01*
X138435714Y-99572023D02*
X139102380Y-99572023D01*
X138054761Y-99810119D02*
X138769047Y-100048214D01*
X138769047Y-99429166D01*
X140952380Y-105738095D02*
X139952380Y-105738095D01*
X139952380Y-105500000D01*
X140000000Y-105357142D01*
X140095238Y-105261904D01*
X140190476Y-105214285D01*
X140380952Y-105166666D01*
X140523809Y-105166666D01*
X140714285Y-105214285D01*
X140809523Y-105261904D01*
X140904761Y-105357142D01*
X140952380Y-105500000D01*
X140952380Y-105738095D01*
X139952380Y-104833333D02*
X139952380Y-104214285D01*
X140333333Y-104547619D01*
X140333333Y-104404761D01*
X140380952Y-104309523D01*
X140428571Y-104261904D01*
X140523809Y-104214285D01*
X140761904Y-104214285D01*
X140857142Y-104261904D01*
X140904761Y-104309523D01*
X140952380Y-104404761D01*
X140952380Y-104690476D01*
X140904761Y-104785714D01*
X140857142Y-104833333D01*
X133361904Y-98352380D02*
X133361904Y-97352380D01*
X133600000Y-97352380D01*
X133742857Y-97400000D01*
X133838095Y-97495238D01*
X133885714Y-97590476D01*
X133933333Y-97780952D01*
X133933333Y-97923809D01*
X133885714Y-98114285D01*
X133838095Y-98209523D01*
X133742857Y-98304761D01*
X133600000Y-98352380D01*
X133361904Y-98352380D01*
X134314285Y-97447619D02*
X134361904Y-97400000D01*
X134457142Y-97352380D01*
X134695238Y-97352380D01*
X134790476Y-97400000D01*
X134838095Y-97447619D01*
X134885714Y-97542857D01*
X134885714Y-97638095D01*
X134838095Y-97780952D01*
X134266666Y-98352380D01*
X134885714Y-98352380D01*
X136038095Y-102852380D02*
X136038095Y-103661904D01*
X136085714Y-103757142D01*
X136133333Y-103804761D01*
X136228571Y-103852380D01*
X136419047Y-103852380D01*
X136514285Y-103804761D01*
X136561904Y-103757142D01*
X136609523Y-103661904D01*
X136609523Y-102852380D01*
X137038095Y-102947619D02*
X137085714Y-102900000D01*
X137180952Y-102852380D01*
X137419047Y-102852380D01*
X137514285Y-102900000D01*
X137561904Y-102947619D01*
X137609523Y-103042857D01*
X137609523Y-103138095D01*
X137561904Y-103280952D01*
X136990476Y-103852380D01*
X137609523Y-103852380D01*
X132707142Y-108229166D02*
X132754761Y-108276785D01*
X132802380Y-108419642D01*
X132802380Y-108514880D01*
X132754761Y-108657738D01*
X132659523Y-108752976D01*
X132564285Y-108800595D01*
X132373809Y-108848214D01*
X132230952Y-108848214D01*
X132040476Y-108800595D01*
X131945238Y-108752976D01*
X131850000Y-108657738D01*
X131802380Y-108514880D01*
X131802380Y-108419642D01*
X131850000Y-108276785D01*
X131897619Y-108229166D01*
X131897619Y-107848214D02*
X131850000Y-107800595D01*
X131802380Y-107705357D01*
X131802380Y-107467261D01*
X131850000Y-107372023D01*
X131897619Y-107324404D01*
X131992857Y-107276785D01*
X132088095Y-107276785D01*
X132230952Y-107324404D01*
X132802380Y-107895833D01*
X132802380Y-107276785D01*
X132707142Y-104229166D02*
X132754761Y-104276785D01*
X132802380Y-104419642D01*
X132802380Y-104514880D01*
X132754761Y-104657738D01*
X132659523Y-104752976D01*
X132564285Y-104800595D01*
X132373809Y-104848214D01*
X132230952Y-104848214D01*
X132040476Y-104800595D01*
X131945238Y-104752976D01*
X131850000Y-104657738D01*
X131802380Y-104514880D01*
X131802380Y-104419642D01*
X131850000Y-104276785D01*
X131897619Y-104229166D01*
X132802380Y-103276785D02*
X132802380Y-103848214D01*
X132802380Y-103562500D02*
X131802380Y-103562500D01*
X131945238Y-103657738D01*
X132040476Y-103752976D01*
X132088095Y-103848214D01*
X131933333Y-93852380D02*
X131600000Y-93376190D01*
X131361904Y-93852380D02*
X131361904Y-92852380D01*
X131742857Y-92852380D01*
X131838095Y-92900000D01*
X131885714Y-92947619D01*
X131933333Y-93042857D01*
X131933333Y-93185714D01*
X131885714Y-93280952D01*
X131838095Y-93328571D01*
X131742857Y-93376190D01*
X131361904Y-93376190D01*
X132314285Y-92947619D02*
X132361904Y-92900000D01*
X132457142Y-92852380D01*
X132695238Y-92852380D01*
X132790476Y-92900000D01*
X132838095Y-92947619D01*
X132885714Y-93042857D01*
X132885714Y-93138095D01*
X132838095Y-93280952D01*
X132266666Y-93852380D01*
X132885714Y-93852380D01*
X132033333Y-95352380D02*
X131700000Y-94876190D01*
X131461904Y-95352380D02*
X131461904Y-94352380D01*
X131842857Y-94352380D01*
X131938095Y-94400000D01*
X131985714Y-94447619D01*
X132033333Y-94542857D01*
X132033333Y-94685714D01*
X131985714Y-94780952D01*
X131938095Y-94828571D01*
X131842857Y-94876190D01*
X131461904Y-94876190D01*
X132985714Y-95352380D02*
X132414285Y-95352380D01*
X132700000Y-95352380D02*
X132700000Y-94352380D01*
X132604761Y-94495238D01*
X132509523Y-94590476D01*
X132414285Y-94638095D01*
X137938095Y-96452380D02*
X137938095Y-97261904D01*
X137985714Y-97357142D01*
X138033333Y-97404761D01*
X138128571Y-97452380D01*
X138319047Y-97452380D01*
X138414285Y-97404761D01*
X138461904Y-97357142D01*
X138509523Y-97261904D01*
X138509523Y-96452380D01*
X139509523Y-97452380D02*
X138938095Y-97452380D01*
X139223809Y-97452380D02*
X139223809Y-96452380D01*
X139128571Y-96595238D01*
X139033333Y-96690476D01*
X138938095Y-96738095D01*
X145433333Y-90752380D02*
X145100000Y-90276190D01*
X144861904Y-90752380D02*
X144861904Y-89752380D01*
X145242857Y-89752380D01*
X145338095Y-89800000D01*
X145385714Y-89847619D01*
X145433333Y-89942857D01*
X145433333Y-90085714D01*
X145385714Y-90180952D01*
X145338095Y-90228571D01*
X145242857Y-90276190D01*
X144861904Y-90276190D01*
X145766666Y-89752380D02*
X146385714Y-89752380D01*
X146052380Y-90133333D01*
X146195238Y-90133333D01*
X146290476Y-90180952D01*
X146338095Y-90228571D01*
X146385714Y-90323809D01*
X146385714Y-90561904D01*
X146338095Y-90657142D01*
X146290476Y-90704761D01*
X146195238Y-90752380D01*
X145909523Y-90752380D01*
X145814285Y-90704761D01*
X145766666Y-90657142D01*
X142904761Y-95047619D02*
X142809523Y-95000000D01*
X142714285Y-94904761D01*
X142571428Y-94761904D01*
X142476190Y-94714285D01*
X142380952Y-94714285D01*
X142428571Y-94952380D02*
X142333333Y-94904761D01*
X142238095Y-94809523D01*
X142190476Y-94619047D01*
X142190476Y-94285714D01*
X142238095Y-94095238D01*
X142333333Y-94000000D01*
X142428571Y-93952380D01*
X142619047Y-93952380D01*
X142714285Y-94000000D01*
X142809523Y-94095238D01*
X142857142Y-94285714D01*
X142857142Y-94619047D01*
X142809523Y-94809523D01*
X142714285Y-94904761D01*
X142619047Y-94952380D01*
X142428571Y-94952380D01*
X143809523Y-94952380D02*
X143238095Y-94952380D01*
X143523809Y-94952380D02*
X143523809Y-93952380D01*
X143428571Y-94095238D01*
X143333333Y-94190476D01*
X143238095Y-94238095D01*
X145752380Y-95133333D02*
X146466666Y-95133333D01*
X146609523Y-95180952D01*
X146704761Y-95276190D01*
X146752380Y-95419047D01*
X146752380Y-95514285D01*
X145847619Y-94704761D02*
X145800000Y-94657142D01*
X145752380Y-94561904D01*
X145752380Y-94323809D01*
X145800000Y-94228571D01*
X145847619Y-94180952D01*
X145942857Y-94133333D01*
X146038095Y-94133333D01*
X146180952Y-94180952D01*
X146752380Y-94752380D01*
X146752380Y-94133333D01*
X124332380Y-99063333D02*
X125046666Y-99063333D01*
X125189523Y-99110952D01*
X125284761Y-99206190D01*
X125332380Y-99349047D01*
X125332380Y-99444285D01*
X125332380Y-98063333D02*
X125332380Y-98634761D01*
X125332380Y-98349047D02*
X124332380Y-98349047D01*
X124475238Y-98444285D01*
X124570476Y-98539523D01*
X124618095Y-98634761D01*
X128238095Y-102252380D02*
X128238095Y-101252380D01*
X128238095Y-101728571D02*
X128809523Y-101728571D01*
X128809523Y-102252380D02*
X128809523Y-101252380D01*
X129714285Y-101585714D02*
X129714285Y-102252380D01*
X129476190Y-101204761D02*
X129238095Y-101919047D01*
X129857142Y-101919047D01*
X149238095Y-102252380D02*
X149238095Y-101252380D01*
X149238095Y-101728571D02*
X149809523Y-101728571D01*
X149809523Y-102252380D02*
X149809523Y-101252380D01*
X150190476Y-101252380D02*
X150809523Y-101252380D01*
X150476190Y-101633333D01*
X150619047Y-101633333D01*
X150714285Y-101680952D01*
X150761904Y-101728571D01*
X150809523Y-101823809D01*
X150809523Y-102061904D01*
X150761904Y-102157142D01*
X150714285Y-102204761D01*
X150619047Y-102252380D01*
X150333333Y-102252380D01*
X150238095Y-102204761D01*
X150190476Y-102157142D01*
X127618095Y-86252380D02*
X127618095Y-85252380D01*
X127618095Y-85728571D02*
X128189523Y-85728571D01*
X128189523Y-86252380D02*
X128189523Y-85252380D01*
X128618095Y-85347619D02*
X128665714Y-85300000D01*
X128760952Y-85252380D01*
X128999047Y-85252380D01*
X129094285Y-85300000D01*
X129141904Y-85347619D01*
X129189523Y-85442857D01*
X129189523Y-85538095D01*
X129141904Y-85680952D01*
X128570476Y-86252380D01*
X129189523Y-86252380D01*
X149238095Y-86252380D02*
X149238095Y-85252380D01*
X149238095Y-85728571D02*
X149809523Y-85728571D01*
X149809523Y-86252380D02*
X149809523Y-85252380D01*
X150809523Y-86252380D02*
X150238095Y-86252380D01*
X150523809Y-86252380D02*
X150523809Y-85252380D01*
X150428571Y-85395238D01*
X150333333Y-85490476D01*
X150238095Y-85538095D01*
X145061904Y-92152380D02*
X145061904Y-91152380D01*
X145300000Y-91152380D01*
X145442857Y-91200000D01*
X145538095Y-91295238D01*
X145585714Y-91390476D01*
X145633333Y-91580952D01*
X145633333Y-91723809D01*
X145585714Y-91914285D01*
X145538095Y-92009523D01*
X145442857Y-92104761D01*
X145300000Y-92152380D01*
X145061904Y-92152380D01*
X146585714Y-92152380D02*
X146014285Y-92152380D01*
X146300000Y-92152380D02*
X146300000Y-91152380D01*
X146204761Y-91295238D01*
X146109523Y-91390476D01*
X146014285Y-91438095D01*
M02*
