G04 #@! TF.GenerationSoftware,KiCad,Pcbnew,(5.1.5)-3*
G04 #@! TF.CreationDate,2020-06-03T08:16:36+02:00*
G04 #@! TF.ProjectId,LowBatAlarm,4c6f7742-6174-4416-9c61-726d2e6b6963,rev?*
G04 #@! TF.SameCoordinates,Original*
G04 #@! TF.FileFunction,Copper,L1,Top*
G04 #@! TF.FilePolarity,Positive*
%FSLAX46Y46*%
G04 Gerber Fmt 4.6, Leading zero omitted, Abs format (unit mm)*
G04 Created by KiCad (PCBNEW (5.1.5)-3) date 2020-06-03 08:16:36*
%MOMM*%
%LPD*%
G04 APERTURE LIST*
%ADD10C,0.100000*%
%ADD11R,1.800000X2.500000*%
%ADD12R,0.800000X0.900000*%
%ADD13R,0.650000X1.220000*%
%ADD14R,0.400000X0.750000*%
%ADD15R,0.800000X0.750000*%
%ADD16R,0.900000X0.800000*%
%ADD17O,2.200000X1.740000*%
%ADD18C,0.800000*%
%ADD19C,0.250000*%
%ADD20C,0.500000*%
%ADD21C,0.254000*%
G04 APERTURE END LIST*
G04 #@! TA.AperFunction,SMDPad,CuDef*
D10*
G36*
X142392642Y-99301174D02*
G01*
X142416303Y-99304684D01*
X142439507Y-99310496D01*
X142462029Y-99318554D01*
X142483653Y-99328782D01*
X142504170Y-99341079D01*
X142523383Y-99355329D01*
X142541107Y-99371393D01*
X142557171Y-99389117D01*
X142571421Y-99408330D01*
X142583718Y-99428847D01*
X142593946Y-99450471D01*
X142602004Y-99472993D01*
X142607816Y-99496197D01*
X142611326Y-99519858D01*
X142612500Y-99543750D01*
X142612500Y-100456250D01*
X142611326Y-100480142D01*
X142607816Y-100503803D01*
X142602004Y-100527007D01*
X142593946Y-100549529D01*
X142583718Y-100571153D01*
X142571421Y-100591670D01*
X142557171Y-100610883D01*
X142541107Y-100628607D01*
X142523383Y-100644671D01*
X142504170Y-100658921D01*
X142483653Y-100671218D01*
X142462029Y-100681446D01*
X142439507Y-100689504D01*
X142416303Y-100695316D01*
X142392642Y-100698826D01*
X142368750Y-100700000D01*
X141881250Y-100700000D01*
X141857358Y-100698826D01*
X141833697Y-100695316D01*
X141810493Y-100689504D01*
X141787971Y-100681446D01*
X141766347Y-100671218D01*
X141745830Y-100658921D01*
X141726617Y-100644671D01*
X141708893Y-100628607D01*
X141692829Y-100610883D01*
X141678579Y-100591670D01*
X141666282Y-100571153D01*
X141656054Y-100549529D01*
X141647996Y-100527007D01*
X141642184Y-100503803D01*
X141638674Y-100480142D01*
X141637500Y-100456250D01*
X141637500Y-99543750D01*
X141638674Y-99519858D01*
X141642184Y-99496197D01*
X141647996Y-99472993D01*
X141656054Y-99450471D01*
X141666282Y-99428847D01*
X141678579Y-99408330D01*
X141692829Y-99389117D01*
X141708893Y-99371393D01*
X141726617Y-99355329D01*
X141745830Y-99341079D01*
X141766347Y-99328782D01*
X141787971Y-99318554D01*
X141810493Y-99310496D01*
X141833697Y-99304684D01*
X141857358Y-99301174D01*
X141881250Y-99300000D01*
X142368750Y-99300000D01*
X142392642Y-99301174D01*
G37*
G04 #@! TD.AperFunction*
G04 #@! TA.AperFunction,SMDPad,CuDef*
G36*
X144267642Y-99301174D02*
G01*
X144291303Y-99304684D01*
X144314507Y-99310496D01*
X144337029Y-99318554D01*
X144358653Y-99328782D01*
X144379170Y-99341079D01*
X144398383Y-99355329D01*
X144416107Y-99371393D01*
X144432171Y-99389117D01*
X144446421Y-99408330D01*
X144458718Y-99428847D01*
X144468946Y-99450471D01*
X144477004Y-99472993D01*
X144482816Y-99496197D01*
X144486326Y-99519858D01*
X144487500Y-99543750D01*
X144487500Y-100456250D01*
X144486326Y-100480142D01*
X144482816Y-100503803D01*
X144477004Y-100527007D01*
X144468946Y-100549529D01*
X144458718Y-100571153D01*
X144446421Y-100591670D01*
X144432171Y-100610883D01*
X144416107Y-100628607D01*
X144398383Y-100644671D01*
X144379170Y-100658921D01*
X144358653Y-100671218D01*
X144337029Y-100681446D01*
X144314507Y-100689504D01*
X144291303Y-100695316D01*
X144267642Y-100698826D01*
X144243750Y-100700000D01*
X143756250Y-100700000D01*
X143732358Y-100698826D01*
X143708697Y-100695316D01*
X143685493Y-100689504D01*
X143662971Y-100681446D01*
X143641347Y-100671218D01*
X143620830Y-100658921D01*
X143601617Y-100644671D01*
X143583893Y-100628607D01*
X143567829Y-100610883D01*
X143553579Y-100591670D01*
X143541282Y-100571153D01*
X143531054Y-100549529D01*
X143522996Y-100527007D01*
X143517184Y-100503803D01*
X143513674Y-100480142D01*
X143512500Y-100456250D01*
X143512500Y-99543750D01*
X143513674Y-99519858D01*
X143517184Y-99496197D01*
X143522996Y-99472993D01*
X143531054Y-99450471D01*
X143541282Y-99428847D01*
X143553579Y-99408330D01*
X143567829Y-99389117D01*
X143583893Y-99371393D01*
X143601617Y-99355329D01*
X143620830Y-99341079D01*
X143641347Y-99328782D01*
X143662971Y-99318554D01*
X143685493Y-99310496D01*
X143708697Y-99304684D01*
X143732358Y-99301174D01*
X143756250Y-99300000D01*
X144243750Y-99300000D01*
X144267642Y-99301174D01*
G37*
G04 #@! TD.AperFunction*
G04 #@! TA.AperFunction,SMDPad,CuDef*
G36*
X137480142Y-100713674D02*
G01*
X137503803Y-100717184D01*
X137527007Y-100722996D01*
X137549529Y-100731054D01*
X137571153Y-100741282D01*
X137591670Y-100753579D01*
X137610883Y-100767829D01*
X137628607Y-100783893D01*
X137644671Y-100801617D01*
X137658921Y-100820830D01*
X137671218Y-100841347D01*
X137681446Y-100862971D01*
X137689504Y-100885493D01*
X137695316Y-100908697D01*
X137698826Y-100932358D01*
X137700000Y-100956250D01*
X137700000Y-101443750D01*
X137698826Y-101467642D01*
X137695316Y-101491303D01*
X137689504Y-101514507D01*
X137681446Y-101537029D01*
X137671218Y-101558653D01*
X137658921Y-101579170D01*
X137644671Y-101598383D01*
X137628607Y-101616107D01*
X137610883Y-101632171D01*
X137591670Y-101646421D01*
X137571153Y-101658718D01*
X137549529Y-101668946D01*
X137527007Y-101677004D01*
X137503803Y-101682816D01*
X137480142Y-101686326D01*
X137456250Y-101687500D01*
X136543750Y-101687500D01*
X136519858Y-101686326D01*
X136496197Y-101682816D01*
X136472993Y-101677004D01*
X136450471Y-101668946D01*
X136428847Y-101658718D01*
X136408330Y-101646421D01*
X136389117Y-101632171D01*
X136371393Y-101616107D01*
X136355329Y-101598383D01*
X136341079Y-101579170D01*
X136328782Y-101558653D01*
X136318554Y-101537029D01*
X136310496Y-101514507D01*
X136304684Y-101491303D01*
X136301174Y-101467642D01*
X136300000Y-101443750D01*
X136300000Y-100956250D01*
X136301174Y-100932358D01*
X136304684Y-100908697D01*
X136310496Y-100885493D01*
X136318554Y-100862971D01*
X136328782Y-100841347D01*
X136341079Y-100820830D01*
X136355329Y-100801617D01*
X136371393Y-100783893D01*
X136389117Y-100767829D01*
X136408330Y-100753579D01*
X136428847Y-100741282D01*
X136450471Y-100731054D01*
X136472993Y-100722996D01*
X136496197Y-100717184D01*
X136519858Y-100713674D01*
X136543750Y-100712500D01*
X137456250Y-100712500D01*
X137480142Y-100713674D01*
G37*
G04 #@! TD.AperFunction*
G04 #@! TA.AperFunction,SMDPad,CuDef*
G36*
X137480142Y-98838674D02*
G01*
X137503803Y-98842184D01*
X137527007Y-98847996D01*
X137549529Y-98856054D01*
X137571153Y-98866282D01*
X137591670Y-98878579D01*
X137610883Y-98892829D01*
X137628607Y-98908893D01*
X137644671Y-98926617D01*
X137658921Y-98945830D01*
X137671218Y-98966347D01*
X137681446Y-98987971D01*
X137689504Y-99010493D01*
X137695316Y-99033697D01*
X137698826Y-99057358D01*
X137700000Y-99081250D01*
X137700000Y-99568750D01*
X137698826Y-99592642D01*
X137695316Y-99616303D01*
X137689504Y-99639507D01*
X137681446Y-99662029D01*
X137671218Y-99683653D01*
X137658921Y-99704170D01*
X137644671Y-99723383D01*
X137628607Y-99741107D01*
X137610883Y-99757171D01*
X137591670Y-99771421D01*
X137571153Y-99783718D01*
X137549529Y-99793946D01*
X137527007Y-99802004D01*
X137503803Y-99807816D01*
X137480142Y-99811326D01*
X137456250Y-99812500D01*
X136543750Y-99812500D01*
X136519858Y-99811326D01*
X136496197Y-99807816D01*
X136472993Y-99802004D01*
X136450471Y-99793946D01*
X136428847Y-99783718D01*
X136408330Y-99771421D01*
X136389117Y-99757171D01*
X136371393Y-99741107D01*
X136355329Y-99723383D01*
X136341079Y-99704170D01*
X136328782Y-99683653D01*
X136318554Y-99662029D01*
X136310496Y-99639507D01*
X136304684Y-99616303D01*
X136301174Y-99592642D01*
X136300000Y-99568750D01*
X136300000Y-99081250D01*
X136301174Y-99057358D01*
X136304684Y-99033697D01*
X136310496Y-99010493D01*
X136318554Y-98987971D01*
X136328782Y-98966347D01*
X136341079Y-98945830D01*
X136355329Y-98926617D01*
X136371393Y-98908893D01*
X136389117Y-98892829D01*
X136408330Y-98878579D01*
X136428847Y-98866282D01*
X136450471Y-98856054D01*
X136472993Y-98847996D01*
X136496197Y-98842184D01*
X136519858Y-98838674D01*
X136543750Y-98837500D01*
X137456250Y-98837500D01*
X137480142Y-98838674D01*
G37*
G04 #@! TD.AperFunction*
D11*
X143000000Y-103000000D03*
X143000000Y-107000000D03*
D12*
X134250000Y-101300000D03*
X133300000Y-99300000D03*
X135200000Y-99300000D03*
D13*
X135950000Y-104980000D03*
X137850000Y-104980000D03*
X137850000Y-107600000D03*
X136900000Y-107600000D03*
X135950000Y-107600000D03*
G04 #@! TA.AperFunction,SMDPad,CuDef*
D10*
G36*
X134480142Y-106638674D02*
G01*
X134503803Y-106642184D01*
X134527007Y-106647996D01*
X134549529Y-106656054D01*
X134571153Y-106666282D01*
X134591670Y-106678579D01*
X134610883Y-106692829D01*
X134628607Y-106708893D01*
X134644671Y-106726617D01*
X134658921Y-106745830D01*
X134671218Y-106766347D01*
X134681446Y-106787971D01*
X134689504Y-106810493D01*
X134695316Y-106833697D01*
X134698826Y-106857358D01*
X134700000Y-106881250D01*
X134700000Y-107368750D01*
X134698826Y-107392642D01*
X134695316Y-107416303D01*
X134689504Y-107439507D01*
X134681446Y-107462029D01*
X134671218Y-107483653D01*
X134658921Y-107504170D01*
X134644671Y-107523383D01*
X134628607Y-107541107D01*
X134610883Y-107557171D01*
X134591670Y-107571421D01*
X134571153Y-107583718D01*
X134549529Y-107593946D01*
X134527007Y-107602004D01*
X134503803Y-107607816D01*
X134480142Y-107611326D01*
X134456250Y-107612500D01*
X133543750Y-107612500D01*
X133519858Y-107611326D01*
X133496197Y-107607816D01*
X133472993Y-107602004D01*
X133450471Y-107593946D01*
X133428847Y-107583718D01*
X133408330Y-107571421D01*
X133389117Y-107557171D01*
X133371393Y-107541107D01*
X133355329Y-107523383D01*
X133341079Y-107504170D01*
X133328782Y-107483653D01*
X133318554Y-107462029D01*
X133310496Y-107439507D01*
X133304684Y-107416303D01*
X133301174Y-107392642D01*
X133300000Y-107368750D01*
X133300000Y-106881250D01*
X133301174Y-106857358D01*
X133304684Y-106833697D01*
X133310496Y-106810493D01*
X133318554Y-106787971D01*
X133328782Y-106766347D01*
X133341079Y-106745830D01*
X133355329Y-106726617D01*
X133371393Y-106708893D01*
X133389117Y-106692829D01*
X133408330Y-106678579D01*
X133428847Y-106666282D01*
X133450471Y-106656054D01*
X133472993Y-106647996D01*
X133496197Y-106642184D01*
X133519858Y-106638674D01*
X133543750Y-106637500D01*
X134456250Y-106637500D01*
X134480142Y-106638674D01*
G37*
G04 #@! TD.AperFunction*
G04 #@! TA.AperFunction,SMDPad,CuDef*
G36*
X134480142Y-108513674D02*
G01*
X134503803Y-108517184D01*
X134527007Y-108522996D01*
X134549529Y-108531054D01*
X134571153Y-108541282D01*
X134591670Y-108553579D01*
X134610883Y-108567829D01*
X134628607Y-108583893D01*
X134644671Y-108601617D01*
X134658921Y-108620830D01*
X134671218Y-108641347D01*
X134681446Y-108662971D01*
X134689504Y-108685493D01*
X134695316Y-108708697D01*
X134698826Y-108732358D01*
X134700000Y-108756250D01*
X134700000Y-109243750D01*
X134698826Y-109267642D01*
X134695316Y-109291303D01*
X134689504Y-109314507D01*
X134681446Y-109337029D01*
X134671218Y-109358653D01*
X134658921Y-109379170D01*
X134644671Y-109398383D01*
X134628607Y-109416107D01*
X134610883Y-109432171D01*
X134591670Y-109446421D01*
X134571153Y-109458718D01*
X134549529Y-109468946D01*
X134527007Y-109477004D01*
X134503803Y-109482816D01*
X134480142Y-109486326D01*
X134456250Y-109487500D01*
X133543750Y-109487500D01*
X133519858Y-109486326D01*
X133496197Y-109482816D01*
X133472993Y-109477004D01*
X133450471Y-109468946D01*
X133428847Y-109458718D01*
X133408330Y-109446421D01*
X133389117Y-109432171D01*
X133371393Y-109416107D01*
X133355329Y-109398383D01*
X133341079Y-109379170D01*
X133328782Y-109358653D01*
X133318554Y-109337029D01*
X133310496Y-109314507D01*
X133304684Y-109291303D01*
X133301174Y-109267642D01*
X133300000Y-109243750D01*
X133300000Y-108756250D01*
X133301174Y-108732358D01*
X133304684Y-108708697D01*
X133310496Y-108685493D01*
X133318554Y-108662971D01*
X133328782Y-108641347D01*
X133341079Y-108620830D01*
X133355329Y-108601617D01*
X133371393Y-108583893D01*
X133389117Y-108567829D01*
X133408330Y-108553579D01*
X133428847Y-108541282D01*
X133450471Y-108531054D01*
X133472993Y-108522996D01*
X133496197Y-108517184D01*
X133519858Y-108513674D01*
X133543750Y-108512500D01*
X134456250Y-108512500D01*
X134480142Y-108513674D01*
G37*
G04 #@! TD.AperFunction*
G04 #@! TA.AperFunction,SMDPad,CuDef*
G36*
X134480142Y-102638674D02*
G01*
X134503803Y-102642184D01*
X134527007Y-102647996D01*
X134549529Y-102656054D01*
X134571153Y-102666282D01*
X134591670Y-102678579D01*
X134610883Y-102692829D01*
X134628607Y-102708893D01*
X134644671Y-102726617D01*
X134658921Y-102745830D01*
X134671218Y-102766347D01*
X134681446Y-102787971D01*
X134689504Y-102810493D01*
X134695316Y-102833697D01*
X134698826Y-102857358D01*
X134700000Y-102881250D01*
X134700000Y-103368750D01*
X134698826Y-103392642D01*
X134695316Y-103416303D01*
X134689504Y-103439507D01*
X134681446Y-103462029D01*
X134671218Y-103483653D01*
X134658921Y-103504170D01*
X134644671Y-103523383D01*
X134628607Y-103541107D01*
X134610883Y-103557171D01*
X134591670Y-103571421D01*
X134571153Y-103583718D01*
X134549529Y-103593946D01*
X134527007Y-103602004D01*
X134503803Y-103607816D01*
X134480142Y-103611326D01*
X134456250Y-103612500D01*
X133543750Y-103612500D01*
X133519858Y-103611326D01*
X133496197Y-103607816D01*
X133472993Y-103602004D01*
X133450471Y-103593946D01*
X133428847Y-103583718D01*
X133408330Y-103571421D01*
X133389117Y-103557171D01*
X133371393Y-103541107D01*
X133355329Y-103523383D01*
X133341079Y-103504170D01*
X133328782Y-103483653D01*
X133318554Y-103462029D01*
X133310496Y-103439507D01*
X133304684Y-103416303D01*
X133301174Y-103392642D01*
X133300000Y-103368750D01*
X133300000Y-102881250D01*
X133301174Y-102857358D01*
X133304684Y-102833697D01*
X133310496Y-102810493D01*
X133318554Y-102787971D01*
X133328782Y-102766347D01*
X133341079Y-102745830D01*
X133355329Y-102726617D01*
X133371393Y-102708893D01*
X133389117Y-102692829D01*
X133408330Y-102678579D01*
X133428847Y-102666282D01*
X133450471Y-102656054D01*
X133472993Y-102647996D01*
X133496197Y-102642184D01*
X133519858Y-102638674D01*
X133543750Y-102637500D01*
X134456250Y-102637500D01*
X134480142Y-102638674D01*
G37*
G04 #@! TD.AperFunction*
G04 #@! TA.AperFunction,SMDPad,CuDef*
G36*
X134480142Y-104513674D02*
G01*
X134503803Y-104517184D01*
X134527007Y-104522996D01*
X134549529Y-104531054D01*
X134571153Y-104541282D01*
X134591670Y-104553579D01*
X134610883Y-104567829D01*
X134628607Y-104583893D01*
X134644671Y-104601617D01*
X134658921Y-104620830D01*
X134671218Y-104641347D01*
X134681446Y-104662971D01*
X134689504Y-104685493D01*
X134695316Y-104708697D01*
X134698826Y-104732358D01*
X134700000Y-104756250D01*
X134700000Y-105243750D01*
X134698826Y-105267642D01*
X134695316Y-105291303D01*
X134689504Y-105314507D01*
X134681446Y-105337029D01*
X134671218Y-105358653D01*
X134658921Y-105379170D01*
X134644671Y-105398383D01*
X134628607Y-105416107D01*
X134610883Y-105432171D01*
X134591670Y-105446421D01*
X134571153Y-105458718D01*
X134549529Y-105468946D01*
X134527007Y-105477004D01*
X134503803Y-105482816D01*
X134480142Y-105486326D01*
X134456250Y-105487500D01*
X133543750Y-105487500D01*
X133519858Y-105486326D01*
X133496197Y-105482816D01*
X133472993Y-105477004D01*
X133450471Y-105468946D01*
X133428847Y-105458718D01*
X133408330Y-105446421D01*
X133389117Y-105432171D01*
X133371393Y-105416107D01*
X133355329Y-105398383D01*
X133341079Y-105379170D01*
X133328782Y-105358653D01*
X133318554Y-105337029D01*
X133310496Y-105314507D01*
X133304684Y-105291303D01*
X133301174Y-105267642D01*
X133300000Y-105243750D01*
X133300000Y-104756250D01*
X133301174Y-104732358D01*
X133304684Y-104708697D01*
X133310496Y-104685493D01*
X133318554Y-104662971D01*
X133328782Y-104641347D01*
X133341079Y-104620830D01*
X133355329Y-104601617D01*
X133371393Y-104583893D01*
X133389117Y-104567829D01*
X133408330Y-104553579D01*
X133428847Y-104541282D01*
X133450471Y-104531054D01*
X133472993Y-104522996D01*
X133496197Y-104517184D01*
X133519858Y-104513674D01*
X133543750Y-104512500D01*
X134456250Y-104512500D01*
X134480142Y-104513674D01*
G37*
G04 #@! TD.AperFunction*
G04 #@! TA.AperFunction,SMDPad,CuDef*
G36*
X136142642Y-93301174D02*
G01*
X136166303Y-93304684D01*
X136189507Y-93310496D01*
X136212029Y-93318554D01*
X136233653Y-93328782D01*
X136254170Y-93341079D01*
X136273383Y-93355329D01*
X136291107Y-93371393D01*
X136307171Y-93389117D01*
X136321421Y-93408330D01*
X136333718Y-93428847D01*
X136343946Y-93450471D01*
X136352004Y-93472993D01*
X136357816Y-93496197D01*
X136361326Y-93519858D01*
X136362500Y-93543750D01*
X136362500Y-94456250D01*
X136361326Y-94480142D01*
X136357816Y-94503803D01*
X136352004Y-94527007D01*
X136343946Y-94549529D01*
X136333718Y-94571153D01*
X136321421Y-94591670D01*
X136307171Y-94610883D01*
X136291107Y-94628607D01*
X136273383Y-94644671D01*
X136254170Y-94658921D01*
X136233653Y-94671218D01*
X136212029Y-94681446D01*
X136189507Y-94689504D01*
X136166303Y-94695316D01*
X136142642Y-94698826D01*
X136118750Y-94700000D01*
X135631250Y-94700000D01*
X135607358Y-94698826D01*
X135583697Y-94695316D01*
X135560493Y-94689504D01*
X135537971Y-94681446D01*
X135516347Y-94671218D01*
X135495830Y-94658921D01*
X135476617Y-94644671D01*
X135458893Y-94628607D01*
X135442829Y-94610883D01*
X135428579Y-94591670D01*
X135416282Y-94571153D01*
X135406054Y-94549529D01*
X135397996Y-94527007D01*
X135392184Y-94503803D01*
X135388674Y-94480142D01*
X135387500Y-94456250D01*
X135387500Y-93543750D01*
X135388674Y-93519858D01*
X135392184Y-93496197D01*
X135397996Y-93472993D01*
X135406054Y-93450471D01*
X135416282Y-93428847D01*
X135428579Y-93408330D01*
X135442829Y-93389117D01*
X135458893Y-93371393D01*
X135476617Y-93355329D01*
X135495830Y-93341079D01*
X135516347Y-93328782D01*
X135537971Y-93318554D01*
X135560493Y-93310496D01*
X135583697Y-93304684D01*
X135607358Y-93301174D01*
X135631250Y-93300000D01*
X136118750Y-93300000D01*
X136142642Y-93301174D01*
G37*
G04 #@! TD.AperFunction*
G04 #@! TA.AperFunction,SMDPad,CuDef*
G36*
X134267642Y-93301174D02*
G01*
X134291303Y-93304684D01*
X134314507Y-93310496D01*
X134337029Y-93318554D01*
X134358653Y-93328782D01*
X134379170Y-93341079D01*
X134398383Y-93355329D01*
X134416107Y-93371393D01*
X134432171Y-93389117D01*
X134446421Y-93408330D01*
X134458718Y-93428847D01*
X134468946Y-93450471D01*
X134477004Y-93472993D01*
X134482816Y-93496197D01*
X134486326Y-93519858D01*
X134487500Y-93543750D01*
X134487500Y-94456250D01*
X134486326Y-94480142D01*
X134482816Y-94503803D01*
X134477004Y-94527007D01*
X134468946Y-94549529D01*
X134458718Y-94571153D01*
X134446421Y-94591670D01*
X134432171Y-94610883D01*
X134416107Y-94628607D01*
X134398383Y-94644671D01*
X134379170Y-94658921D01*
X134358653Y-94671218D01*
X134337029Y-94681446D01*
X134314507Y-94689504D01*
X134291303Y-94695316D01*
X134267642Y-94698826D01*
X134243750Y-94700000D01*
X133756250Y-94700000D01*
X133732358Y-94698826D01*
X133708697Y-94695316D01*
X133685493Y-94689504D01*
X133662971Y-94681446D01*
X133641347Y-94671218D01*
X133620830Y-94658921D01*
X133601617Y-94644671D01*
X133583893Y-94628607D01*
X133567829Y-94610883D01*
X133553579Y-94591670D01*
X133541282Y-94571153D01*
X133531054Y-94549529D01*
X133522996Y-94527007D01*
X133517184Y-94503803D01*
X133513674Y-94480142D01*
X133512500Y-94456250D01*
X133512500Y-93543750D01*
X133513674Y-93519858D01*
X133517184Y-93496197D01*
X133522996Y-93472993D01*
X133531054Y-93450471D01*
X133541282Y-93428847D01*
X133553579Y-93408330D01*
X133567829Y-93389117D01*
X133583893Y-93371393D01*
X133601617Y-93355329D01*
X133620830Y-93341079D01*
X133641347Y-93328782D01*
X133662971Y-93318554D01*
X133685493Y-93310496D01*
X133708697Y-93304684D01*
X133732358Y-93301174D01*
X133756250Y-93300000D01*
X134243750Y-93300000D01*
X134267642Y-93301174D01*
G37*
G04 #@! TD.AperFunction*
G04 #@! TA.AperFunction,SMDPad,CuDef*
G36*
X136142642Y-95301174D02*
G01*
X136166303Y-95304684D01*
X136189507Y-95310496D01*
X136212029Y-95318554D01*
X136233653Y-95328782D01*
X136254170Y-95341079D01*
X136273383Y-95355329D01*
X136291107Y-95371393D01*
X136307171Y-95389117D01*
X136321421Y-95408330D01*
X136333718Y-95428847D01*
X136343946Y-95450471D01*
X136352004Y-95472993D01*
X136357816Y-95496197D01*
X136361326Y-95519858D01*
X136362500Y-95543750D01*
X136362500Y-96456250D01*
X136361326Y-96480142D01*
X136357816Y-96503803D01*
X136352004Y-96527007D01*
X136343946Y-96549529D01*
X136333718Y-96571153D01*
X136321421Y-96591670D01*
X136307171Y-96610883D01*
X136291107Y-96628607D01*
X136273383Y-96644671D01*
X136254170Y-96658921D01*
X136233653Y-96671218D01*
X136212029Y-96681446D01*
X136189507Y-96689504D01*
X136166303Y-96695316D01*
X136142642Y-96698826D01*
X136118750Y-96700000D01*
X135631250Y-96700000D01*
X135607358Y-96698826D01*
X135583697Y-96695316D01*
X135560493Y-96689504D01*
X135537971Y-96681446D01*
X135516347Y-96671218D01*
X135495830Y-96658921D01*
X135476617Y-96644671D01*
X135458893Y-96628607D01*
X135442829Y-96610883D01*
X135428579Y-96591670D01*
X135416282Y-96571153D01*
X135406054Y-96549529D01*
X135397996Y-96527007D01*
X135392184Y-96503803D01*
X135388674Y-96480142D01*
X135387500Y-96456250D01*
X135387500Y-95543750D01*
X135388674Y-95519858D01*
X135392184Y-95496197D01*
X135397996Y-95472993D01*
X135406054Y-95450471D01*
X135416282Y-95428847D01*
X135428579Y-95408330D01*
X135442829Y-95389117D01*
X135458893Y-95371393D01*
X135476617Y-95355329D01*
X135495830Y-95341079D01*
X135516347Y-95328782D01*
X135537971Y-95318554D01*
X135560493Y-95310496D01*
X135583697Y-95304684D01*
X135607358Y-95301174D01*
X135631250Y-95300000D01*
X136118750Y-95300000D01*
X136142642Y-95301174D01*
G37*
G04 #@! TD.AperFunction*
G04 #@! TA.AperFunction,SMDPad,CuDef*
G36*
X134267642Y-95301174D02*
G01*
X134291303Y-95304684D01*
X134314507Y-95310496D01*
X134337029Y-95318554D01*
X134358653Y-95328782D01*
X134379170Y-95341079D01*
X134398383Y-95355329D01*
X134416107Y-95371393D01*
X134432171Y-95389117D01*
X134446421Y-95408330D01*
X134458718Y-95428847D01*
X134468946Y-95450471D01*
X134477004Y-95472993D01*
X134482816Y-95496197D01*
X134486326Y-95519858D01*
X134487500Y-95543750D01*
X134487500Y-96456250D01*
X134486326Y-96480142D01*
X134482816Y-96503803D01*
X134477004Y-96527007D01*
X134468946Y-96549529D01*
X134458718Y-96571153D01*
X134446421Y-96591670D01*
X134432171Y-96610883D01*
X134416107Y-96628607D01*
X134398383Y-96644671D01*
X134379170Y-96658921D01*
X134358653Y-96671218D01*
X134337029Y-96681446D01*
X134314507Y-96689504D01*
X134291303Y-96695316D01*
X134267642Y-96698826D01*
X134243750Y-96700000D01*
X133756250Y-96700000D01*
X133732358Y-96698826D01*
X133708697Y-96695316D01*
X133685493Y-96689504D01*
X133662971Y-96681446D01*
X133641347Y-96671218D01*
X133620830Y-96658921D01*
X133601617Y-96644671D01*
X133583893Y-96628607D01*
X133567829Y-96610883D01*
X133553579Y-96591670D01*
X133541282Y-96571153D01*
X133531054Y-96549529D01*
X133522996Y-96527007D01*
X133517184Y-96503803D01*
X133513674Y-96480142D01*
X133512500Y-96456250D01*
X133512500Y-95543750D01*
X133513674Y-95519858D01*
X133517184Y-95496197D01*
X133522996Y-95472993D01*
X133531054Y-95450471D01*
X133541282Y-95428847D01*
X133553579Y-95408330D01*
X133567829Y-95389117D01*
X133583893Y-95371393D01*
X133601617Y-95355329D01*
X133620830Y-95341079D01*
X133641347Y-95328782D01*
X133662971Y-95318554D01*
X133685493Y-95310496D01*
X133708697Y-95304684D01*
X133732358Y-95301174D01*
X133756250Y-95300000D01*
X134243750Y-95300000D01*
X134267642Y-95301174D01*
G37*
G04 #@! TD.AperFunction*
D14*
X138000000Y-94000000D03*
X139300000Y-94000000D03*
D15*
X139150000Y-95650000D03*
D14*
X138000000Y-95650000D03*
G04 #@! TA.AperFunction,SMDPad,CuDef*
D10*
G36*
X144142642Y-91301174D02*
G01*
X144166303Y-91304684D01*
X144189507Y-91310496D01*
X144212029Y-91318554D01*
X144233653Y-91328782D01*
X144254170Y-91341079D01*
X144273383Y-91355329D01*
X144291107Y-91371393D01*
X144307171Y-91389117D01*
X144321421Y-91408330D01*
X144333718Y-91428847D01*
X144343946Y-91450471D01*
X144352004Y-91472993D01*
X144357816Y-91496197D01*
X144361326Y-91519858D01*
X144362500Y-91543750D01*
X144362500Y-92456250D01*
X144361326Y-92480142D01*
X144357816Y-92503803D01*
X144352004Y-92527007D01*
X144343946Y-92549529D01*
X144333718Y-92571153D01*
X144321421Y-92591670D01*
X144307171Y-92610883D01*
X144291107Y-92628607D01*
X144273383Y-92644671D01*
X144254170Y-92658921D01*
X144233653Y-92671218D01*
X144212029Y-92681446D01*
X144189507Y-92689504D01*
X144166303Y-92695316D01*
X144142642Y-92698826D01*
X144118750Y-92700000D01*
X143631250Y-92700000D01*
X143607358Y-92698826D01*
X143583697Y-92695316D01*
X143560493Y-92689504D01*
X143537971Y-92681446D01*
X143516347Y-92671218D01*
X143495830Y-92658921D01*
X143476617Y-92644671D01*
X143458893Y-92628607D01*
X143442829Y-92610883D01*
X143428579Y-92591670D01*
X143416282Y-92571153D01*
X143406054Y-92549529D01*
X143397996Y-92527007D01*
X143392184Y-92503803D01*
X143388674Y-92480142D01*
X143387500Y-92456250D01*
X143387500Y-91543750D01*
X143388674Y-91519858D01*
X143392184Y-91496197D01*
X143397996Y-91472993D01*
X143406054Y-91450471D01*
X143416282Y-91428847D01*
X143428579Y-91408330D01*
X143442829Y-91389117D01*
X143458893Y-91371393D01*
X143476617Y-91355329D01*
X143495830Y-91341079D01*
X143516347Y-91328782D01*
X143537971Y-91318554D01*
X143560493Y-91310496D01*
X143583697Y-91304684D01*
X143607358Y-91301174D01*
X143631250Y-91300000D01*
X144118750Y-91300000D01*
X144142642Y-91301174D01*
G37*
G04 #@! TD.AperFunction*
G04 #@! TA.AperFunction,SMDPad,CuDef*
G36*
X142267642Y-91301174D02*
G01*
X142291303Y-91304684D01*
X142314507Y-91310496D01*
X142337029Y-91318554D01*
X142358653Y-91328782D01*
X142379170Y-91341079D01*
X142398383Y-91355329D01*
X142416107Y-91371393D01*
X142432171Y-91389117D01*
X142446421Y-91408330D01*
X142458718Y-91428847D01*
X142468946Y-91450471D01*
X142477004Y-91472993D01*
X142482816Y-91496197D01*
X142486326Y-91519858D01*
X142487500Y-91543750D01*
X142487500Y-92456250D01*
X142486326Y-92480142D01*
X142482816Y-92503803D01*
X142477004Y-92527007D01*
X142468946Y-92549529D01*
X142458718Y-92571153D01*
X142446421Y-92591670D01*
X142432171Y-92610883D01*
X142416107Y-92628607D01*
X142398383Y-92644671D01*
X142379170Y-92658921D01*
X142358653Y-92671218D01*
X142337029Y-92681446D01*
X142314507Y-92689504D01*
X142291303Y-92695316D01*
X142267642Y-92698826D01*
X142243750Y-92700000D01*
X141756250Y-92700000D01*
X141732358Y-92698826D01*
X141708697Y-92695316D01*
X141685493Y-92689504D01*
X141662971Y-92681446D01*
X141641347Y-92671218D01*
X141620830Y-92658921D01*
X141601617Y-92644671D01*
X141583893Y-92628607D01*
X141567829Y-92610883D01*
X141553579Y-92591670D01*
X141541282Y-92571153D01*
X141531054Y-92549529D01*
X141522996Y-92527007D01*
X141517184Y-92503803D01*
X141513674Y-92480142D01*
X141512500Y-92456250D01*
X141512500Y-91543750D01*
X141513674Y-91519858D01*
X141517184Y-91496197D01*
X141522996Y-91472993D01*
X141531054Y-91450471D01*
X141541282Y-91428847D01*
X141553579Y-91408330D01*
X141567829Y-91389117D01*
X141583893Y-91371393D01*
X141601617Y-91355329D01*
X141620830Y-91341079D01*
X141641347Y-91328782D01*
X141662971Y-91318554D01*
X141685493Y-91310496D01*
X141708697Y-91304684D01*
X141732358Y-91301174D01*
X141756250Y-91300000D01*
X142243750Y-91300000D01*
X142267642Y-91301174D01*
G37*
G04 #@! TD.AperFunction*
D16*
X144000000Y-97000000D03*
X142000000Y-97950000D03*
X142000000Y-96050000D03*
D17*
X149000000Y-97460000D03*
G04 #@! TA.AperFunction,ComponentPad*
D10*
G36*
X149874505Y-99131204D02*
G01*
X149898773Y-99134804D01*
X149922572Y-99140765D01*
X149945671Y-99149030D01*
X149967850Y-99159520D01*
X149988893Y-99172132D01*
X150008599Y-99186747D01*
X150026777Y-99203223D01*
X150043253Y-99221401D01*
X150057868Y-99241107D01*
X150070480Y-99262150D01*
X150080970Y-99284329D01*
X150089235Y-99307428D01*
X150095196Y-99331227D01*
X150098796Y-99355495D01*
X150100000Y-99379999D01*
X150100000Y-100620001D01*
X150098796Y-100644505D01*
X150095196Y-100668773D01*
X150089235Y-100692572D01*
X150080970Y-100715671D01*
X150070480Y-100737850D01*
X150057868Y-100758893D01*
X150043253Y-100778599D01*
X150026777Y-100796777D01*
X150008599Y-100813253D01*
X149988893Y-100827868D01*
X149967850Y-100840480D01*
X149945671Y-100850970D01*
X149922572Y-100859235D01*
X149898773Y-100865196D01*
X149874505Y-100868796D01*
X149850001Y-100870000D01*
X148149999Y-100870000D01*
X148125495Y-100868796D01*
X148101227Y-100865196D01*
X148077428Y-100859235D01*
X148054329Y-100850970D01*
X148032150Y-100840480D01*
X148011107Y-100827868D01*
X147991401Y-100813253D01*
X147973223Y-100796777D01*
X147956747Y-100778599D01*
X147942132Y-100758893D01*
X147929520Y-100737850D01*
X147919030Y-100715671D01*
X147910765Y-100692572D01*
X147904804Y-100668773D01*
X147901204Y-100644505D01*
X147900000Y-100620001D01*
X147900000Y-99379999D01*
X147901204Y-99355495D01*
X147904804Y-99331227D01*
X147910765Y-99307428D01*
X147919030Y-99284329D01*
X147929520Y-99262150D01*
X147942132Y-99241107D01*
X147956747Y-99221401D01*
X147973223Y-99203223D01*
X147991401Y-99186747D01*
X148011107Y-99172132D01*
X148032150Y-99159520D01*
X148054329Y-99149030D01*
X148077428Y-99140765D01*
X148101227Y-99134804D01*
X148125495Y-99131204D01*
X148149999Y-99130000D01*
X149850001Y-99130000D01*
X149874505Y-99131204D01*
G37*
G04 #@! TD.AperFunction*
D17*
X129000000Y-97460000D03*
G04 #@! TA.AperFunction,ComponentPad*
D10*
G36*
X129874505Y-99131204D02*
G01*
X129898773Y-99134804D01*
X129922572Y-99140765D01*
X129945671Y-99149030D01*
X129967850Y-99159520D01*
X129988893Y-99172132D01*
X130008599Y-99186747D01*
X130026777Y-99203223D01*
X130043253Y-99221401D01*
X130057868Y-99241107D01*
X130070480Y-99262150D01*
X130080970Y-99284329D01*
X130089235Y-99307428D01*
X130095196Y-99331227D01*
X130098796Y-99355495D01*
X130100000Y-99379999D01*
X130100000Y-100620001D01*
X130098796Y-100644505D01*
X130095196Y-100668773D01*
X130089235Y-100692572D01*
X130080970Y-100715671D01*
X130070480Y-100737850D01*
X130057868Y-100758893D01*
X130043253Y-100778599D01*
X130026777Y-100796777D01*
X130008599Y-100813253D01*
X129988893Y-100827868D01*
X129967850Y-100840480D01*
X129945671Y-100850970D01*
X129922572Y-100859235D01*
X129898773Y-100865196D01*
X129874505Y-100868796D01*
X129850001Y-100870000D01*
X128149999Y-100870000D01*
X128125495Y-100868796D01*
X128101227Y-100865196D01*
X128077428Y-100859235D01*
X128054329Y-100850970D01*
X128032150Y-100840480D01*
X128011107Y-100827868D01*
X127991401Y-100813253D01*
X127973223Y-100796777D01*
X127956747Y-100778599D01*
X127942132Y-100758893D01*
X127929520Y-100737850D01*
X127919030Y-100715671D01*
X127910765Y-100692572D01*
X127904804Y-100668773D01*
X127901204Y-100644505D01*
X127900000Y-100620001D01*
X127900000Y-99379999D01*
X127901204Y-99355495D01*
X127904804Y-99331227D01*
X127910765Y-99307428D01*
X127919030Y-99284329D01*
X127929520Y-99262150D01*
X127942132Y-99241107D01*
X127956747Y-99221401D01*
X127973223Y-99203223D01*
X127991401Y-99186747D01*
X128011107Y-99172132D01*
X128032150Y-99159520D01*
X128054329Y-99149030D01*
X128077428Y-99140765D01*
X128101227Y-99134804D01*
X128125495Y-99131204D01*
X128149999Y-99130000D01*
X129850001Y-99130000D01*
X129874505Y-99131204D01*
G37*
G04 #@! TD.AperFunction*
G04 #@! TA.AperFunction,SMDPad,CuDef*
G36*
X144142642Y-93301174D02*
G01*
X144166303Y-93304684D01*
X144189507Y-93310496D01*
X144212029Y-93318554D01*
X144233653Y-93328782D01*
X144254170Y-93341079D01*
X144273383Y-93355329D01*
X144291107Y-93371393D01*
X144307171Y-93389117D01*
X144321421Y-93408330D01*
X144333718Y-93428847D01*
X144343946Y-93450471D01*
X144352004Y-93472993D01*
X144357816Y-93496197D01*
X144361326Y-93519858D01*
X144362500Y-93543750D01*
X144362500Y-94456250D01*
X144361326Y-94480142D01*
X144357816Y-94503803D01*
X144352004Y-94527007D01*
X144343946Y-94549529D01*
X144333718Y-94571153D01*
X144321421Y-94591670D01*
X144307171Y-94610883D01*
X144291107Y-94628607D01*
X144273383Y-94644671D01*
X144254170Y-94658921D01*
X144233653Y-94671218D01*
X144212029Y-94681446D01*
X144189507Y-94689504D01*
X144166303Y-94695316D01*
X144142642Y-94698826D01*
X144118750Y-94700000D01*
X143631250Y-94700000D01*
X143607358Y-94698826D01*
X143583697Y-94695316D01*
X143560493Y-94689504D01*
X143537971Y-94681446D01*
X143516347Y-94671218D01*
X143495830Y-94658921D01*
X143476617Y-94644671D01*
X143458893Y-94628607D01*
X143442829Y-94610883D01*
X143428579Y-94591670D01*
X143416282Y-94571153D01*
X143406054Y-94549529D01*
X143397996Y-94527007D01*
X143392184Y-94503803D01*
X143388674Y-94480142D01*
X143387500Y-94456250D01*
X143387500Y-93543750D01*
X143388674Y-93519858D01*
X143392184Y-93496197D01*
X143397996Y-93472993D01*
X143406054Y-93450471D01*
X143416282Y-93428847D01*
X143428579Y-93408330D01*
X143442829Y-93389117D01*
X143458893Y-93371393D01*
X143476617Y-93355329D01*
X143495830Y-93341079D01*
X143516347Y-93328782D01*
X143537971Y-93318554D01*
X143560493Y-93310496D01*
X143583697Y-93304684D01*
X143607358Y-93301174D01*
X143631250Y-93300000D01*
X144118750Y-93300000D01*
X144142642Y-93301174D01*
G37*
G04 #@! TD.AperFunction*
G04 #@! TA.AperFunction,SMDPad,CuDef*
G36*
X142267642Y-93301174D02*
G01*
X142291303Y-93304684D01*
X142314507Y-93310496D01*
X142337029Y-93318554D01*
X142358653Y-93328782D01*
X142379170Y-93341079D01*
X142398383Y-93355329D01*
X142416107Y-93371393D01*
X142432171Y-93389117D01*
X142446421Y-93408330D01*
X142458718Y-93428847D01*
X142468946Y-93450471D01*
X142477004Y-93472993D01*
X142482816Y-93496197D01*
X142486326Y-93519858D01*
X142487500Y-93543750D01*
X142487500Y-94456250D01*
X142486326Y-94480142D01*
X142482816Y-94503803D01*
X142477004Y-94527007D01*
X142468946Y-94549529D01*
X142458718Y-94571153D01*
X142446421Y-94591670D01*
X142432171Y-94610883D01*
X142416107Y-94628607D01*
X142398383Y-94644671D01*
X142379170Y-94658921D01*
X142358653Y-94671218D01*
X142337029Y-94681446D01*
X142314507Y-94689504D01*
X142291303Y-94695316D01*
X142267642Y-94698826D01*
X142243750Y-94700000D01*
X141756250Y-94700000D01*
X141732358Y-94698826D01*
X141708697Y-94695316D01*
X141685493Y-94689504D01*
X141662971Y-94681446D01*
X141641347Y-94671218D01*
X141620830Y-94658921D01*
X141601617Y-94644671D01*
X141583893Y-94628607D01*
X141567829Y-94610883D01*
X141553579Y-94591670D01*
X141541282Y-94571153D01*
X141531054Y-94549529D01*
X141522996Y-94527007D01*
X141517184Y-94503803D01*
X141513674Y-94480142D01*
X141512500Y-94456250D01*
X141512500Y-93543750D01*
X141513674Y-93519858D01*
X141517184Y-93496197D01*
X141522996Y-93472993D01*
X141531054Y-93450471D01*
X141541282Y-93428847D01*
X141553579Y-93408330D01*
X141567829Y-93389117D01*
X141583893Y-93371393D01*
X141601617Y-93355329D01*
X141620830Y-93341079D01*
X141641347Y-93328782D01*
X141662971Y-93318554D01*
X141685493Y-93310496D01*
X141708697Y-93304684D01*
X141732358Y-93301174D01*
X141756250Y-93300000D01*
X142243750Y-93300000D01*
X142267642Y-93301174D01*
G37*
G04 #@! TD.AperFunction*
D18*
X136800000Y-102800000D03*
X143100000Y-98000000D03*
X139000000Y-97100000D03*
X145900000Y-95600000D03*
X145600000Y-102900000D03*
X131600000Y-103400000D03*
D19*
X139300000Y-94000000D02*
X142000000Y-94000000D01*
X142000000Y-96050000D02*
X142000000Y-94000000D01*
X136799473Y-106639473D02*
X134485527Y-106639473D01*
X134485527Y-106639473D02*
X134000000Y-107125000D01*
X136900000Y-107600000D02*
X136900000Y-106740000D01*
X136900000Y-106740000D02*
X136799473Y-106639473D01*
D20*
X134000000Y-96100000D02*
X134000000Y-96000000D01*
X130100000Y-100000000D02*
X134000000Y-96100000D01*
X129000000Y-100000000D02*
X130100000Y-100000000D01*
X134000000Y-98100000D02*
X135200000Y-99300000D01*
X134000000Y-96000000D02*
X134000000Y-98100000D01*
D19*
X148540000Y-97000000D02*
X149000000Y-97460000D01*
X148770000Y-97460000D02*
X149000000Y-97460000D01*
X147650000Y-98580000D02*
X148770000Y-97460000D01*
X147650000Y-98810000D02*
X147650000Y-98580000D01*
X146460000Y-100000000D02*
X147650000Y-98810000D01*
X144000000Y-100000000D02*
X146460000Y-100000000D01*
X134000000Y-94125000D02*
X134000000Y-94000000D01*
X135875000Y-96000000D02*
X134000000Y-94125000D01*
X137650000Y-96000000D02*
X138000000Y-95650000D01*
X135875000Y-96000000D02*
X137650000Y-96000000D01*
X139375000Y-92000000D02*
X141512500Y-92000000D01*
X141512500Y-92000000D02*
X142000000Y-92000000D01*
X138000000Y-93375000D02*
X139375000Y-92000000D01*
X138000000Y-94000000D02*
X138000000Y-93375000D01*
X135930000Y-105000000D02*
X135950000Y-104980000D01*
X134000000Y-105000000D02*
X135930000Y-105000000D01*
X137850000Y-104980000D02*
X135950000Y-104980000D01*
X138000000Y-94625000D02*
X138000000Y-94000000D01*
X139600001Y-94700001D02*
X138075001Y-94700001D01*
X140575001Y-95675001D02*
X139600001Y-94700001D01*
X140575001Y-102829999D02*
X140575001Y-95675001D01*
X138425000Y-104980000D02*
X140575001Y-102829999D01*
X138075001Y-94700001D02*
X138000000Y-94625000D01*
X137850000Y-104980000D02*
X138425000Y-104980000D01*
X132974990Y-107974990D02*
X133000000Y-108000000D01*
X132974990Y-102645660D02*
X132974990Y-107974990D01*
X133308160Y-102312490D02*
X132974990Y-102645660D01*
X135887510Y-102312490D02*
X133308160Y-102312490D01*
X137000000Y-101200000D02*
X135887510Y-102312490D01*
D20*
X133000000Y-108000000D02*
X132849990Y-107849990D01*
X134000000Y-109000000D02*
X133000000Y-108000000D01*
D19*
X143000000Y-108500000D02*
X143000000Y-107000000D01*
X142500000Y-109000000D02*
X143000000Y-108500000D01*
X137900000Y-108510000D02*
X137900000Y-109000000D01*
X137850000Y-108460000D02*
X137900000Y-108510000D01*
X137850000Y-107600000D02*
X137850000Y-108460000D01*
X137900000Y-109000000D02*
X142500000Y-109000000D01*
X135950000Y-107600000D02*
X135950000Y-108460000D01*
X136000000Y-108510000D02*
X136000000Y-109000000D01*
X134000000Y-109000000D02*
X136000000Y-109000000D01*
X135950000Y-108460000D02*
X136000000Y-108510000D01*
X136000000Y-109000000D02*
X137900000Y-109000000D01*
D20*
X133300000Y-100350000D02*
X134250000Y-101300000D01*
X133300000Y-99300000D02*
X133300000Y-100350000D01*
X135025000Y-101300000D02*
X137000000Y-99325000D01*
X134250000Y-101300000D02*
X135025000Y-101300000D01*
D19*
X144000000Y-98125000D02*
X142125000Y-100000000D01*
X144000000Y-97000000D02*
X144000000Y-98125000D01*
D21*
G36*
X153340001Y-109340000D02*
G01*
X143234801Y-109340000D01*
X143510998Y-109063803D01*
X143540001Y-109040001D01*
X143634974Y-108924276D01*
X143654326Y-108888072D01*
X143900000Y-108888072D01*
X144024482Y-108875812D01*
X144144180Y-108839502D01*
X144254494Y-108780537D01*
X144351185Y-108701185D01*
X144430537Y-108604494D01*
X144489502Y-108494180D01*
X144525812Y-108374482D01*
X144538072Y-108250000D01*
X144538072Y-105779872D01*
X147765000Y-105779872D01*
X147765000Y-106220128D01*
X147850890Y-106651925D01*
X148019369Y-107058669D01*
X148263962Y-107424729D01*
X148575271Y-107736038D01*
X148941331Y-107980631D01*
X149348075Y-108149110D01*
X149779872Y-108235000D01*
X150220128Y-108235000D01*
X150651925Y-108149110D01*
X151058669Y-107980631D01*
X151424729Y-107736038D01*
X151736038Y-107424729D01*
X151980631Y-107058669D01*
X152149110Y-106651925D01*
X152235000Y-106220128D01*
X152235000Y-105779872D01*
X152149110Y-105348075D01*
X151980631Y-104941331D01*
X151736038Y-104575271D01*
X151424729Y-104263962D01*
X151058669Y-104019369D01*
X150651925Y-103850890D01*
X150220128Y-103765000D01*
X149779872Y-103765000D01*
X149348075Y-103850890D01*
X148941331Y-104019369D01*
X148575271Y-104263962D01*
X148263962Y-104575271D01*
X148019369Y-104941331D01*
X147850890Y-105348075D01*
X147765000Y-105779872D01*
X144538072Y-105779872D01*
X144538072Y-105750000D01*
X144525812Y-105625518D01*
X144489502Y-105505820D01*
X144430537Y-105395506D01*
X144351185Y-105298815D01*
X144254494Y-105219463D01*
X144144180Y-105160498D01*
X144024482Y-105124188D01*
X143900000Y-105111928D01*
X142100000Y-105111928D01*
X141975518Y-105124188D01*
X141855820Y-105160498D01*
X141745506Y-105219463D01*
X141648815Y-105298815D01*
X141569463Y-105395506D01*
X141510498Y-105505820D01*
X141474188Y-105625518D01*
X141461928Y-105750000D01*
X141461928Y-108240000D01*
X138810117Y-108240000D01*
X138813072Y-108210000D01*
X138813072Y-106990000D01*
X138800812Y-106865518D01*
X138764502Y-106745820D01*
X138705537Y-106635506D01*
X138626185Y-106538815D01*
X138529494Y-106459463D01*
X138419180Y-106400498D01*
X138299482Y-106364188D01*
X138175000Y-106351928D01*
X137525000Y-106351928D01*
X137400518Y-106364188D01*
X137375000Y-106371929D01*
X137349482Y-106364188D01*
X137225000Y-106351928D01*
X137185750Y-106355000D01*
X137027000Y-106513750D01*
X137027000Y-106595859D01*
X136994463Y-106635506D01*
X136935498Y-106745820D01*
X136900000Y-106862841D01*
X136864502Y-106745820D01*
X136805537Y-106635506D01*
X136773000Y-106595859D01*
X136773000Y-106513750D01*
X136614250Y-106355000D01*
X136575000Y-106351928D01*
X136450518Y-106364188D01*
X136425000Y-106371929D01*
X136399482Y-106364188D01*
X136275000Y-106351928D01*
X135625000Y-106351928D01*
X135500518Y-106364188D01*
X135380820Y-106400498D01*
X135304116Y-106441498D01*
X135289502Y-106393320D01*
X135230537Y-106283006D01*
X135151185Y-106186315D01*
X135054494Y-106106963D01*
X134944180Y-106047998D01*
X134860658Y-106022662D01*
X134946164Y-105976958D01*
X135061306Y-105882463D01*
X135094463Y-105944494D01*
X135173815Y-106041185D01*
X135270506Y-106120537D01*
X135380820Y-106179502D01*
X135500518Y-106215812D01*
X135625000Y-106228072D01*
X136275000Y-106228072D01*
X136399482Y-106215812D01*
X136519180Y-106179502D01*
X136629494Y-106120537D01*
X136726185Y-106041185D01*
X136805537Y-105944494D01*
X136864502Y-105834180D01*
X136893071Y-105740000D01*
X136906929Y-105740000D01*
X136935498Y-105834180D01*
X136994463Y-105944494D01*
X137073815Y-106041185D01*
X137170506Y-106120537D01*
X137280820Y-106179502D01*
X137400518Y-106215812D01*
X137525000Y-106228072D01*
X138175000Y-106228072D01*
X138299482Y-106215812D01*
X138419180Y-106179502D01*
X138529494Y-106120537D01*
X138626185Y-106041185D01*
X138705537Y-105944494D01*
X138764502Y-105834180D01*
X138800812Y-105714482D01*
X138808464Y-105636789D01*
X138849276Y-105614974D01*
X138965001Y-105520001D01*
X138988804Y-105490997D01*
X140229801Y-104250000D01*
X141461928Y-104250000D01*
X141474188Y-104374482D01*
X141510498Y-104494180D01*
X141569463Y-104604494D01*
X141648815Y-104701185D01*
X141745506Y-104780537D01*
X141855820Y-104839502D01*
X141975518Y-104875812D01*
X142100000Y-104888072D01*
X142714250Y-104885000D01*
X142873000Y-104726250D01*
X142873000Y-103127000D01*
X143127000Y-103127000D01*
X143127000Y-104726250D01*
X143285750Y-104885000D01*
X143900000Y-104888072D01*
X144024482Y-104875812D01*
X144144180Y-104839502D01*
X144254494Y-104780537D01*
X144351185Y-104701185D01*
X144430537Y-104604494D01*
X144489502Y-104494180D01*
X144525812Y-104374482D01*
X144538072Y-104250000D01*
X144535000Y-103285750D01*
X144376250Y-103127000D01*
X143127000Y-103127000D01*
X142873000Y-103127000D01*
X141623750Y-103127000D01*
X141465000Y-103285750D01*
X141461928Y-104250000D01*
X140229801Y-104250000D01*
X141086005Y-103393797D01*
X141115002Y-103370000D01*
X141209975Y-103254275D01*
X141280547Y-103122246D01*
X141324004Y-102978985D01*
X141335001Y-102867332D01*
X141335001Y-102867331D01*
X141338678Y-102829999D01*
X141335001Y-102792666D01*
X141335001Y-101143225D01*
X141391336Y-101189458D01*
X141543791Y-101270947D01*
X141646193Y-101302010D01*
X141569463Y-101395506D01*
X141510498Y-101505820D01*
X141474188Y-101625518D01*
X141461928Y-101750000D01*
X141465000Y-102714250D01*
X141623750Y-102873000D01*
X142873000Y-102873000D01*
X142873000Y-101273750D01*
X142813076Y-101213826D01*
X142858664Y-101189458D01*
X142992292Y-101079792D01*
X143062500Y-100994244D01*
X143132708Y-101079792D01*
X143236103Y-101164647D01*
X143127000Y-101273750D01*
X143127000Y-102873000D01*
X144376250Y-102873000D01*
X144535000Y-102714250D01*
X144538072Y-101750000D01*
X144525812Y-101625518D01*
X144489502Y-101505820D01*
X144430537Y-101395506D01*
X144372958Y-101325346D01*
X144415785Y-101321128D01*
X144581209Y-101270947D01*
X144733664Y-101189458D01*
X144867292Y-101079792D01*
X144976958Y-100946164D01*
X145058447Y-100793709D01*
X145068673Y-100760000D01*
X146422678Y-100760000D01*
X146460000Y-100763676D01*
X146497322Y-100760000D01*
X146497333Y-100760000D01*
X146608986Y-100749003D01*
X146752247Y-100705546D01*
X146884276Y-100634974D01*
X147000001Y-100540001D01*
X147023804Y-100510997D01*
X147261928Y-100272873D01*
X147261928Y-100620001D01*
X147278992Y-100793255D01*
X147329528Y-100959851D01*
X147411595Y-101113387D01*
X147522038Y-101247962D01*
X147656613Y-101358405D01*
X147810149Y-101440472D01*
X147976745Y-101491008D01*
X148149999Y-101508072D01*
X149850001Y-101508072D01*
X150023255Y-101491008D01*
X150189851Y-101440472D01*
X150343387Y-101358405D01*
X150477962Y-101247962D01*
X150588405Y-101113387D01*
X150670472Y-100959851D01*
X150721008Y-100793255D01*
X150738072Y-100620001D01*
X150738072Y-99379999D01*
X150721008Y-99206745D01*
X150670472Y-99040149D01*
X150588405Y-98886613D01*
X150477962Y-98752038D01*
X150343387Y-98641595D01*
X150233886Y-98583066D01*
X150299345Y-98529345D01*
X150487417Y-98300179D01*
X150627166Y-98038725D01*
X150713224Y-97755032D01*
X150742282Y-97460000D01*
X150713224Y-97164968D01*
X150627166Y-96881275D01*
X150487417Y-96619821D01*
X150299345Y-96390655D01*
X150070179Y-96202583D01*
X149808725Y-96062834D01*
X149525032Y-95976776D01*
X149303936Y-95955000D01*
X148696064Y-95955000D01*
X148474968Y-95976776D01*
X148191275Y-96062834D01*
X147929821Y-96202583D01*
X147700655Y-96390655D01*
X147512583Y-96619821D01*
X147372834Y-96881275D01*
X147286776Y-97164968D01*
X147257718Y-97460000D01*
X147286776Y-97755032D01*
X147313167Y-97842032D01*
X147139001Y-98016198D01*
X147109999Y-98039999D01*
X147015026Y-98155724D01*
X146944454Y-98287753D01*
X146900997Y-98431014D01*
X146895186Y-98490012D01*
X146145199Y-99240000D01*
X145068673Y-99240000D01*
X145058447Y-99206291D01*
X144976958Y-99053836D01*
X144867292Y-98920208D01*
X144733664Y-98810542D01*
X144581209Y-98729053D01*
X144496459Y-98703344D01*
X144511008Y-98688795D01*
X144540001Y-98665001D01*
X144563795Y-98636008D01*
X144563799Y-98636004D01*
X144634973Y-98549277D01*
X144638506Y-98542668D01*
X144705546Y-98417247D01*
X144749003Y-98273986D01*
X144760000Y-98162333D01*
X144760000Y-98162324D01*
X144763676Y-98125001D01*
X144760000Y-98087678D01*
X144760000Y-97954320D01*
X144804494Y-97930537D01*
X144901185Y-97851185D01*
X144980537Y-97754494D01*
X145039502Y-97644180D01*
X145075812Y-97524482D01*
X145088072Y-97400000D01*
X145088072Y-96600000D01*
X145075812Y-96475518D01*
X145039502Y-96355820D01*
X144980537Y-96245506D01*
X144901185Y-96148815D01*
X144804494Y-96069463D01*
X144694180Y-96010498D01*
X144574482Y-95974188D01*
X144450000Y-95961928D01*
X143550000Y-95961928D01*
X143425518Y-95974188D01*
X143305820Y-96010498D01*
X143195506Y-96069463D01*
X143098815Y-96148815D01*
X143088072Y-96161905D01*
X143088072Y-95650000D01*
X143075812Y-95525518D01*
X143039502Y-95405820D01*
X142980537Y-95295506D01*
X142901185Y-95198815D01*
X142811723Y-95125396D01*
X142867292Y-95079792D01*
X142937500Y-94994244D01*
X143007708Y-95079792D01*
X143141336Y-95189458D01*
X143293791Y-95270947D01*
X143459215Y-95321128D01*
X143631250Y-95338072D01*
X144118750Y-95338072D01*
X144290785Y-95321128D01*
X144456209Y-95270947D01*
X144608664Y-95189458D01*
X144742292Y-95079792D01*
X144851958Y-94946164D01*
X144933447Y-94793709D01*
X144983628Y-94628285D01*
X145000572Y-94456250D01*
X145000572Y-93543750D01*
X144983628Y-93371715D01*
X144933447Y-93206291D01*
X144851958Y-93053836D01*
X144807776Y-93000000D01*
X144851958Y-92946164D01*
X144933447Y-92793709D01*
X144983628Y-92628285D01*
X145000572Y-92456250D01*
X145000572Y-91543750D01*
X144983628Y-91371715D01*
X144933447Y-91206291D01*
X144851958Y-91053836D01*
X144742292Y-90920208D01*
X144608664Y-90810542D01*
X144456209Y-90729053D01*
X144290785Y-90678872D01*
X144118750Y-90661928D01*
X143631250Y-90661928D01*
X143459215Y-90678872D01*
X143293791Y-90729053D01*
X143141336Y-90810542D01*
X143007708Y-90920208D01*
X142937500Y-91005756D01*
X142867292Y-90920208D01*
X142733664Y-90810542D01*
X142581209Y-90729053D01*
X142415785Y-90678872D01*
X142243750Y-90661928D01*
X141756250Y-90661928D01*
X141584215Y-90678872D01*
X141418791Y-90729053D01*
X141266336Y-90810542D01*
X141132708Y-90920208D01*
X141023042Y-91053836D01*
X140941553Y-91206291D01*
X140931327Y-91240000D01*
X139412325Y-91240000D01*
X139375000Y-91236324D01*
X139337675Y-91240000D01*
X139337667Y-91240000D01*
X139226014Y-91250997D01*
X139082753Y-91294454D01*
X138950724Y-91365026D01*
X138834999Y-91459999D01*
X138811201Y-91488997D01*
X137488998Y-92811201D01*
X137460000Y-92834999D01*
X137436202Y-92863997D01*
X137436201Y-92863998D01*
X137365026Y-92950724D01*
X137319713Y-93035498D01*
X137294454Y-93082753D01*
X137250997Y-93226014D01*
X137241454Y-93322907D01*
X137210498Y-93380820D01*
X137174188Y-93500518D01*
X137161928Y-93625000D01*
X137161928Y-94375000D01*
X137174188Y-94499482D01*
X137210498Y-94619180D01*
X137241454Y-94677093D01*
X137250997Y-94773985D01*
X137281337Y-94874003D01*
X137288432Y-94897392D01*
X137269463Y-94920506D01*
X137210498Y-95030820D01*
X137174188Y-95150518D01*
X137165375Y-95240000D01*
X136943673Y-95240000D01*
X136933447Y-95206291D01*
X136868373Y-95084547D01*
X136893037Y-95054494D01*
X136952002Y-94944180D01*
X136988312Y-94824482D01*
X137000572Y-94700000D01*
X136997500Y-94285750D01*
X136838750Y-94127000D01*
X136002000Y-94127000D01*
X136002000Y-94147000D01*
X135748000Y-94147000D01*
X135748000Y-94127000D01*
X135728000Y-94127000D01*
X135728000Y-93873000D01*
X135748000Y-93873000D01*
X135748000Y-92823750D01*
X136002000Y-92823750D01*
X136002000Y-93873000D01*
X136838750Y-93873000D01*
X136997500Y-93714250D01*
X137000572Y-93300000D01*
X136988312Y-93175518D01*
X136952002Y-93055820D01*
X136893037Y-92945506D01*
X136813685Y-92848815D01*
X136716994Y-92769463D01*
X136606680Y-92710498D01*
X136486982Y-92674188D01*
X136362500Y-92661928D01*
X136160750Y-92665000D01*
X136002000Y-92823750D01*
X135748000Y-92823750D01*
X135589250Y-92665000D01*
X135387500Y-92661928D01*
X135263018Y-92674188D01*
X135143320Y-92710498D01*
X135033006Y-92769463D01*
X134936315Y-92848815D01*
X134872508Y-92926564D01*
X134867292Y-92920208D01*
X134733664Y-92810542D01*
X134581209Y-92729053D01*
X134415785Y-92678872D01*
X134243750Y-92661928D01*
X133756250Y-92661928D01*
X133584215Y-92678872D01*
X133418791Y-92729053D01*
X133266336Y-92810542D01*
X133132708Y-92920208D01*
X133023042Y-93053836D01*
X132941553Y-93206291D01*
X132891372Y-93371715D01*
X132874428Y-93543750D01*
X132874428Y-94456250D01*
X132891372Y-94628285D01*
X132941553Y-94793709D01*
X133023042Y-94946164D01*
X133067224Y-95000000D01*
X133023042Y-95053836D01*
X132941553Y-95206291D01*
X132891372Y-95371715D01*
X132874428Y-95543750D01*
X132874428Y-95973993D01*
X130254394Y-98594027D01*
X130234686Y-98583493D01*
X130390536Y-98430494D01*
X130557571Y-98185437D01*
X130673588Y-97912502D01*
X130691302Y-97820031D01*
X130570246Y-97587000D01*
X129127000Y-97587000D01*
X129127000Y-97607000D01*
X128873000Y-97607000D01*
X128873000Y-97587000D01*
X127429754Y-97587000D01*
X127308698Y-97820031D01*
X127326412Y-97912502D01*
X127442429Y-98185437D01*
X127609464Y-98430494D01*
X127765314Y-98583493D01*
X127656613Y-98641595D01*
X127522038Y-98752038D01*
X127411595Y-98886613D01*
X127329528Y-99040149D01*
X127278992Y-99206745D01*
X127261928Y-99379999D01*
X127261928Y-100620001D01*
X127278992Y-100793255D01*
X127329528Y-100959851D01*
X127411595Y-101113387D01*
X127522038Y-101247962D01*
X127656613Y-101358405D01*
X127810149Y-101440472D01*
X127976745Y-101491008D01*
X128149999Y-101508072D01*
X129850001Y-101508072D01*
X130023255Y-101491008D01*
X130189851Y-101440472D01*
X130343387Y-101358405D01*
X130477962Y-101247962D01*
X130588405Y-101113387D01*
X130670472Y-100959851D01*
X130721008Y-100793255D01*
X130738072Y-100620001D01*
X130738072Y-100617540D01*
X130756534Y-100595044D01*
X132261928Y-99089650D01*
X132261928Y-99750000D01*
X132274188Y-99874482D01*
X132310498Y-99994180D01*
X132369463Y-100104494D01*
X132415001Y-100159982D01*
X132415001Y-100306522D01*
X132410719Y-100350000D01*
X132427805Y-100523490D01*
X132478412Y-100690313D01*
X132560590Y-100844059D01*
X132643468Y-100945046D01*
X132643471Y-100945049D01*
X132671184Y-100978817D01*
X132704951Y-101006529D01*
X133211928Y-101513507D01*
X133211928Y-101558291D01*
X133159174Y-101563487D01*
X133015913Y-101606944D01*
X132883884Y-101677516D01*
X132768159Y-101772489D01*
X132744356Y-101801493D01*
X132463993Y-102081856D01*
X132434989Y-102105659D01*
X132380385Y-102172195D01*
X132340016Y-102221384D01*
X132284326Y-102325572D01*
X132269444Y-102353414D01*
X132225987Y-102496675D01*
X132214990Y-102608328D01*
X132214990Y-102608338D01*
X132211314Y-102645660D01*
X132214990Y-102682983D01*
X132214991Y-107228706D01*
X132110580Y-107355931D01*
X132028402Y-107509677D01*
X131977795Y-107676500D01*
X131960709Y-107849990D01*
X131977795Y-108023480D01*
X132028402Y-108190303D01*
X132110580Y-108344049D01*
X132193458Y-108445036D01*
X132661928Y-108913506D01*
X132661928Y-109243750D01*
X132671408Y-109340000D01*
X124660000Y-109340000D01*
X124660000Y-105779872D01*
X126765000Y-105779872D01*
X126765000Y-106220128D01*
X126850890Y-106651925D01*
X127019369Y-107058669D01*
X127263962Y-107424729D01*
X127575271Y-107736038D01*
X127941331Y-107980631D01*
X128348075Y-108149110D01*
X128779872Y-108235000D01*
X129220128Y-108235000D01*
X129651925Y-108149110D01*
X130058669Y-107980631D01*
X130424729Y-107736038D01*
X130736038Y-107424729D01*
X130980631Y-107058669D01*
X131149110Y-106651925D01*
X131235000Y-106220128D01*
X131235000Y-105779872D01*
X131149110Y-105348075D01*
X130980631Y-104941331D01*
X130736038Y-104575271D01*
X130424729Y-104263962D01*
X130058669Y-104019369D01*
X129651925Y-103850890D01*
X129220128Y-103765000D01*
X128779872Y-103765000D01*
X128348075Y-103850890D01*
X127941331Y-104019369D01*
X127575271Y-104263962D01*
X127263962Y-104575271D01*
X127019369Y-104941331D01*
X126850890Y-105348075D01*
X126765000Y-105779872D01*
X124660000Y-105779872D01*
X124660000Y-97099969D01*
X127308698Y-97099969D01*
X127429754Y-97333000D01*
X128873000Y-97333000D01*
X128873000Y-96109414D01*
X129127000Y-96109414D01*
X129127000Y-97333000D01*
X130570246Y-97333000D01*
X130691302Y-97099969D01*
X130673588Y-97007498D01*
X130557571Y-96734563D01*
X130390536Y-96489506D01*
X130178903Y-96281744D01*
X129930804Y-96119262D01*
X129655773Y-96008304D01*
X129364380Y-95953134D01*
X129127000Y-96109414D01*
X128873000Y-96109414D01*
X128635620Y-95953134D01*
X128344227Y-96008304D01*
X128069196Y-96119262D01*
X127821097Y-96281744D01*
X127609464Y-96489506D01*
X127442429Y-96734563D01*
X127326412Y-97007498D01*
X127308698Y-97099969D01*
X124660000Y-97099969D01*
X124660000Y-89779872D01*
X126145000Y-89779872D01*
X126145000Y-90220128D01*
X126230890Y-90651925D01*
X126399369Y-91058669D01*
X126643962Y-91424729D01*
X126955271Y-91736038D01*
X127321331Y-91980631D01*
X127728075Y-92149110D01*
X128159872Y-92235000D01*
X128600128Y-92235000D01*
X129031925Y-92149110D01*
X129438669Y-91980631D01*
X129804729Y-91736038D01*
X130116038Y-91424729D01*
X130360631Y-91058669D01*
X130529110Y-90651925D01*
X130615000Y-90220128D01*
X130615000Y-89779872D01*
X147765000Y-89779872D01*
X147765000Y-90220128D01*
X147850890Y-90651925D01*
X148019369Y-91058669D01*
X148263962Y-91424729D01*
X148575271Y-91736038D01*
X148941331Y-91980631D01*
X149348075Y-92149110D01*
X149779872Y-92235000D01*
X150220128Y-92235000D01*
X150651925Y-92149110D01*
X151058669Y-91980631D01*
X151424729Y-91736038D01*
X151736038Y-91424729D01*
X151980631Y-91058669D01*
X152149110Y-90651925D01*
X152235000Y-90220128D01*
X152235000Y-89779872D01*
X152149110Y-89348075D01*
X151980631Y-88941331D01*
X151736038Y-88575271D01*
X151424729Y-88263962D01*
X151058669Y-88019369D01*
X150651925Y-87850890D01*
X150220128Y-87765000D01*
X149779872Y-87765000D01*
X149348075Y-87850890D01*
X148941331Y-88019369D01*
X148575271Y-88263962D01*
X148263962Y-88575271D01*
X148019369Y-88941331D01*
X147850890Y-89348075D01*
X147765000Y-89779872D01*
X130615000Y-89779872D01*
X130529110Y-89348075D01*
X130360631Y-88941331D01*
X130116038Y-88575271D01*
X129804729Y-88263962D01*
X129438669Y-88019369D01*
X129031925Y-87850890D01*
X128600128Y-87765000D01*
X128159872Y-87765000D01*
X127728075Y-87850890D01*
X127321331Y-88019369D01*
X126955271Y-88263962D01*
X126643962Y-88575271D01*
X126399369Y-88941331D01*
X126230890Y-89348075D01*
X126145000Y-89779872D01*
X124660000Y-89779872D01*
X124660000Y-86660000D01*
X153340000Y-86660000D01*
X153340001Y-109340000D01*
G37*
X153340001Y-109340000D02*
X143234801Y-109340000D01*
X143510998Y-109063803D01*
X143540001Y-109040001D01*
X143634974Y-108924276D01*
X143654326Y-108888072D01*
X143900000Y-108888072D01*
X144024482Y-108875812D01*
X144144180Y-108839502D01*
X144254494Y-108780537D01*
X144351185Y-108701185D01*
X144430537Y-108604494D01*
X144489502Y-108494180D01*
X144525812Y-108374482D01*
X144538072Y-108250000D01*
X144538072Y-105779872D01*
X147765000Y-105779872D01*
X147765000Y-106220128D01*
X147850890Y-106651925D01*
X148019369Y-107058669D01*
X148263962Y-107424729D01*
X148575271Y-107736038D01*
X148941331Y-107980631D01*
X149348075Y-108149110D01*
X149779872Y-108235000D01*
X150220128Y-108235000D01*
X150651925Y-108149110D01*
X151058669Y-107980631D01*
X151424729Y-107736038D01*
X151736038Y-107424729D01*
X151980631Y-107058669D01*
X152149110Y-106651925D01*
X152235000Y-106220128D01*
X152235000Y-105779872D01*
X152149110Y-105348075D01*
X151980631Y-104941331D01*
X151736038Y-104575271D01*
X151424729Y-104263962D01*
X151058669Y-104019369D01*
X150651925Y-103850890D01*
X150220128Y-103765000D01*
X149779872Y-103765000D01*
X149348075Y-103850890D01*
X148941331Y-104019369D01*
X148575271Y-104263962D01*
X148263962Y-104575271D01*
X148019369Y-104941331D01*
X147850890Y-105348075D01*
X147765000Y-105779872D01*
X144538072Y-105779872D01*
X144538072Y-105750000D01*
X144525812Y-105625518D01*
X144489502Y-105505820D01*
X144430537Y-105395506D01*
X144351185Y-105298815D01*
X144254494Y-105219463D01*
X144144180Y-105160498D01*
X144024482Y-105124188D01*
X143900000Y-105111928D01*
X142100000Y-105111928D01*
X141975518Y-105124188D01*
X141855820Y-105160498D01*
X141745506Y-105219463D01*
X141648815Y-105298815D01*
X141569463Y-105395506D01*
X141510498Y-105505820D01*
X141474188Y-105625518D01*
X141461928Y-105750000D01*
X141461928Y-108240000D01*
X138810117Y-108240000D01*
X138813072Y-108210000D01*
X138813072Y-106990000D01*
X138800812Y-106865518D01*
X138764502Y-106745820D01*
X138705537Y-106635506D01*
X138626185Y-106538815D01*
X138529494Y-106459463D01*
X138419180Y-106400498D01*
X138299482Y-106364188D01*
X138175000Y-106351928D01*
X137525000Y-106351928D01*
X137400518Y-106364188D01*
X137375000Y-106371929D01*
X137349482Y-106364188D01*
X137225000Y-106351928D01*
X137185750Y-106355000D01*
X137027000Y-106513750D01*
X137027000Y-106595859D01*
X136994463Y-106635506D01*
X136935498Y-106745820D01*
X136900000Y-106862841D01*
X136864502Y-106745820D01*
X136805537Y-106635506D01*
X136773000Y-106595859D01*
X136773000Y-106513750D01*
X136614250Y-106355000D01*
X136575000Y-106351928D01*
X136450518Y-106364188D01*
X136425000Y-106371929D01*
X136399482Y-106364188D01*
X136275000Y-106351928D01*
X135625000Y-106351928D01*
X135500518Y-106364188D01*
X135380820Y-106400498D01*
X135304116Y-106441498D01*
X135289502Y-106393320D01*
X135230537Y-106283006D01*
X135151185Y-106186315D01*
X135054494Y-106106963D01*
X134944180Y-106047998D01*
X134860658Y-106022662D01*
X134946164Y-105976958D01*
X135061306Y-105882463D01*
X135094463Y-105944494D01*
X135173815Y-106041185D01*
X135270506Y-106120537D01*
X135380820Y-106179502D01*
X135500518Y-106215812D01*
X135625000Y-106228072D01*
X136275000Y-106228072D01*
X136399482Y-106215812D01*
X136519180Y-106179502D01*
X136629494Y-106120537D01*
X136726185Y-106041185D01*
X136805537Y-105944494D01*
X136864502Y-105834180D01*
X136893071Y-105740000D01*
X136906929Y-105740000D01*
X136935498Y-105834180D01*
X136994463Y-105944494D01*
X137073815Y-106041185D01*
X137170506Y-106120537D01*
X137280820Y-106179502D01*
X137400518Y-106215812D01*
X137525000Y-106228072D01*
X138175000Y-106228072D01*
X138299482Y-106215812D01*
X138419180Y-106179502D01*
X138529494Y-106120537D01*
X138626185Y-106041185D01*
X138705537Y-105944494D01*
X138764502Y-105834180D01*
X138800812Y-105714482D01*
X138808464Y-105636789D01*
X138849276Y-105614974D01*
X138965001Y-105520001D01*
X138988804Y-105490997D01*
X140229801Y-104250000D01*
X141461928Y-104250000D01*
X141474188Y-104374482D01*
X141510498Y-104494180D01*
X141569463Y-104604494D01*
X141648815Y-104701185D01*
X141745506Y-104780537D01*
X141855820Y-104839502D01*
X141975518Y-104875812D01*
X142100000Y-104888072D01*
X142714250Y-104885000D01*
X142873000Y-104726250D01*
X142873000Y-103127000D01*
X143127000Y-103127000D01*
X143127000Y-104726250D01*
X143285750Y-104885000D01*
X143900000Y-104888072D01*
X144024482Y-104875812D01*
X144144180Y-104839502D01*
X144254494Y-104780537D01*
X144351185Y-104701185D01*
X144430537Y-104604494D01*
X144489502Y-104494180D01*
X144525812Y-104374482D01*
X144538072Y-104250000D01*
X144535000Y-103285750D01*
X144376250Y-103127000D01*
X143127000Y-103127000D01*
X142873000Y-103127000D01*
X141623750Y-103127000D01*
X141465000Y-103285750D01*
X141461928Y-104250000D01*
X140229801Y-104250000D01*
X141086005Y-103393797D01*
X141115002Y-103370000D01*
X141209975Y-103254275D01*
X141280547Y-103122246D01*
X141324004Y-102978985D01*
X141335001Y-102867332D01*
X141335001Y-102867331D01*
X141338678Y-102829999D01*
X141335001Y-102792666D01*
X141335001Y-101143225D01*
X141391336Y-101189458D01*
X141543791Y-101270947D01*
X141646193Y-101302010D01*
X141569463Y-101395506D01*
X141510498Y-101505820D01*
X141474188Y-101625518D01*
X141461928Y-101750000D01*
X141465000Y-102714250D01*
X141623750Y-102873000D01*
X142873000Y-102873000D01*
X142873000Y-101273750D01*
X142813076Y-101213826D01*
X142858664Y-101189458D01*
X142992292Y-101079792D01*
X143062500Y-100994244D01*
X143132708Y-101079792D01*
X143236103Y-101164647D01*
X143127000Y-101273750D01*
X143127000Y-102873000D01*
X144376250Y-102873000D01*
X144535000Y-102714250D01*
X144538072Y-101750000D01*
X144525812Y-101625518D01*
X144489502Y-101505820D01*
X144430537Y-101395506D01*
X144372958Y-101325346D01*
X144415785Y-101321128D01*
X144581209Y-101270947D01*
X144733664Y-101189458D01*
X144867292Y-101079792D01*
X144976958Y-100946164D01*
X145058447Y-100793709D01*
X145068673Y-100760000D01*
X146422678Y-100760000D01*
X146460000Y-100763676D01*
X146497322Y-100760000D01*
X146497333Y-100760000D01*
X146608986Y-100749003D01*
X146752247Y-100705546D01*
X146884276Y-100634974D01*
X147000001Y-100540001D01*
X147023804Y-100510997D01*
X147261928Y-100272873D01*
X147261928Y-100620001D01*
X147278992Y-100793255D01*
X147329528Y-100959851D01*
X147411595Y-101113387D01*
X147522038Y-101247962D01*
X147656613Y-101358405D01*
X147810149Y-101440472D01*
X147976745Y-101491008D01*
X148149999Y-101508072D01*
X149850001Y-101508072D01*
X150023255Y-101491008D01*
X150189851Y-101440472D01*
X150343387Y-101358405D01*
X150477962Y-101247962D01*
X150588405Y-101113387D01*
X150670472Y-100959851D01*
X150721008Y-100793255D01*
X150738072Y-100620001D01*
X150738072Y-99379999D01*
X150721008Y-99206745D01*
X150670472Y-99040149D01*
X150588405Y-98886613D01*
X150477962Y-98752038D01*
X150343387Y-98641595D01*
X150233886Y-98583066D01*
X150299345Y-98529345D01*
X150487417Y-98300179D01*
X150627166Y-98038725D01*
X150713224Y-97755032D01*
X150742282Y-97460000D01*
X150713224Y-97164968D01*
X150627166Y-96881275D01*
X150487417Y-96619821D01*
X150299345Y-96390655D01*
X150070179Y-96202583D01*
X149808725Y-96062834D01*
X149525032Y-95976776D01*
X149303936Y-95955000D01*
X148696064Y-95955000D01*
X148474968Y-95976776D01*
X148191275Y-96062834D01*
X147929821Y-96202583D01*
X147700655Y-96390655D01*
X147512583Y-96619821D01*
X147372834Y-96881275D01*
X147286776Y-97164968D01*
X147257718Y-97460000D01*
X147286776Y-97755032D01*
X147313167Y-97842032D01*
X147139001Y-98016198D01*
X147109999Y-98039999D01*
X147015026Y-98155724D01*
X146944454Y-98287753D01*
X146900997Y-98431014D01*
X146895186Y-98490012D01*
X146145199Y-99240000D01*
X145068673Y-99240000D01*
X145058447Y-99206291D01*
X144976958Y-99053836D01*
X144867292Y-98920208D01*
X144733664Y-98810542D01*
X144581209Y-98729053D01*
X144496459Y-98703344D01*
X144511008Y-98688795D01*
X144540001Y-98665001D01*
X144563795Y-98636008D01*
X144563799Y-98636004D01*
X144634973Y-98549277D01*
X144638506Y-98542668D01*
X144705546Y-98417247D01*
X144749003Y-98273986D01*
X144760000Y-98162333D01*
X144760000Y-98162324D01*
X144763676Y-98125001D01*
X144760000Y-98087678D01*
X144760000Y-97954320D01*
X144804494Y-97930537D01*
X144901185Y-97851185D01*
X144980537Y-97754494D01*
X145039502Y-97644180D01*
X145075812Y-97524482D01*
X145088072Y-97400000D01*
X145088072Y-96600000D01*
X145075812Y-96475518D01*
X145039502Y-96355820D01*
X144980537Y-96245506D01*
X144901185Y-96148815D01*
X144804494Y-96069463D01*
X144694180Y-96010498D01*
X144574482Y-95974188D01*
X144450000Y-95961928D01*
X143550000Y-95961928D01*
X143425518Y-95974188D01*
X143305820Y-96010498D01*
X143195506Y-96069463D01*
X143098815Y-96148815D01*
X143088072Y-96161905D01*
X143088072Y-95650000D01*
X143075812Y-95525518D01*
X143039502Y-95405820D01*
X142980537Y-95295506D01*
X142901185Y-95198815D01*
X142811723Y-95125396D01*
X142867292Y-95079792D01*
X142937500Y-94994244D01*
X143007708Y-95079792D01*
X143141336Y-95189458D01*
X143293791Y-95270947D01*
X143459215Y-95321128D01*
X143631250Y-95338072D01*
X144118750Y-95338072D01*
X144290785Y-95321128D01*
X144456209Y-95270947D01*
X144608664Y-95189458D01*
X144742292Y-95079792D01*
X144851958Y-94946164D01*
X144933447Y-94793709D01*
X144983628Y-94628285D01*
X145000572Y-94456250D01*
X145000572Y-93543750D01*
X144983628Y-93371715D01*
X144933447Y-93206291D01*
X144851958Y-93053836D01*
X144807776Y-93000000D01*
X144851958Y-92946164D01*
X144933447Y-92793709D01*
X144983628Y-92628285D01*
X145000572Y-92456250D01*
X145000572Y-91543750D01*
X144983628Y-91371715D01*
X144933447Y-91206291D01*
X144851958Y-91053836D01*
X144742292Y-90920208D01*
X144608664Y-90810542D01*
X144456209Y-90729053D01*
X144290785Y-90678872D01*
X144118750Y-90661928D01*
X143631250Y-90661928D01*
X143459215Y-90678872D01*
X143293791Y-90729053D01*
X143141336Y-90810542D01*
X143007708Y-90920208D01*
X142937500Y-91005756D01*
X142867292Y-90920208D01*
X142733664Y-90810542D01*
X142581209Y-90729053D01*
X142415785Y-90678872D01*
X142243750Y-90661928D01*
X141756250Y-90661928D01*
X141584215Y-90678872D01*
X141418791Y-90729053D01*
X141266336Y-90810542D01*
X141132708Y-90920208D01*
X141023042Y-91053836D01*
X140941553Y-91206291D01*
X140931327Y-91240000D01*
X139412325Y-91240000D01*
X139375000Y-91236324D01*
X139337675Y-91240000D01*
X139337667Y-91240000D01*
X139226014Y-91250997D01*
X139082753Y-91294454D01*
X138950724Y-91365026D01*
X138834999Y-91459999D01*
X138811201Y-91488997D01*
X137488998Y-92811201D01*
X137460000Y-92834999D01*
X137436202Y-92863997D01*
X137436201Y-92863998D01*
X137365026Y-92950724D01*
X137319713Y-93035498D01*
X137294454Y-93082753D01*
X137250997Y-93226014D01*
X137241454Y-93322907D01*
X137210498Y-93380820D01*
X137174188Y-93500518D01*
X137161928Y-93625000D01*
X137161928Y-94375000D01*
X137174188Y-94499482D01*
X137210498Y-94619180D01*
X137241454Y-94677093D01*
X137250997Y-94773985D01*
X137281337Y-94874003D01*
X137288432Y-94897392D01*
X137269463Y-94920506D01*
X137210498Y-95030820D01*
X137174188Y-95150518D01*
X137165375Y-95240000D01*
X136943673Y-95240000D01*
X136933447Y-95206291D01*
X136868373Y-95084547D01*
X136893037Y-95054494D01*
X136952002Y-94944180D01*
X136988312Y-94824482D01*
X137000572Y-94700000D01*
X136997500Y-94285750D01*
X136838750Y-94127000D01*
X136002000Y-94127000D01*
X136002000Y-94147000D01*
X135748000Y-94147000D01*
X135748000Y-94127000D01*
X135728000Y-94127000D01*
X135728000Y-93873000D01*
X135748000Y-93873000D01*
X135748000Y-92823750D01*
X136002000Y-92823750D01*
X136002000Y-93873000D01*
X136838750Y-93873000D01*
X136997500Y-93714250D01*
X137000572Y-93300000D01*
X136988312Y-93175518D01*
X136952002Y-93055820D01*
X136893037Y-92945506D01*
X136813685Y-92848815D01*
X136716994Y-92769463D01*
X136606680Y-92710498D01*
X136486982Y-92674188D01*
X136362500Y-92661928D01*
X136160750Y-92665000D01*
X136002000Y-92823750D01*
X135748000Y-92823750D01*
X135589250Y-92665000D01*
X135387500Y-92661928D01*
X135263018Y-92674188D01*
X135143320Y-92710498D01*
X135033006Y-92769463D01*
X134936315Y-92848815D01*
X134872508Y-92926564D01*
X134867292Y-92920208D01*
X134733664Y-92810542D01*
X134581209Y-92729053D01*
X134415785Y-92678872D01*
X134243750Y-92661928D01*
X133756250Y-92661928D01*
X133584215Y-92678872D01*
X133418791Y-92729053D01*
X133266336Y-92810542D01*
X133132708Y-92920208D01*
X133023042Y-93053836D01*
X132941553Y-93206291D01*
X132891372Y-93371715D01*
X132874428Y-93543750D01*
X132874428Y-94456250D01*
X132891372Y-94628285D01*
X132941553Y-94793709D01*
X133023042Y-94946164D01*
X133067224Y-95000000D01*
X133023042Y-95053836D01*
X132941553Y-95206291D01*
X132891372Y-95371715D01*
X132874428Y-95543750D01*
X132874428Y-95973993D01*
X130254394Y-98594027D01*
X130234686Y-98583493D01*
X130390536Y-98430494D01*
X130557571Y-98185437D01*
X130673588Y-97912502D01*
X130691302Y-97820031D01*
X130570246Y-97587000D01*
X129127000Y-97587000D01*
X129127000Y-97607000D01*
X128873000Y-97607000D01*
X128873000Y-97587000D01*
X127429754Y-97587000D01*
X127308698Y-97820031D01*
X127326412Y-97912502D01*
X127442429Y-98185437D01*
X127609464Y-98430494D01*
X127765314Y-98583493D01*
X127656613Y-98641595D01*
X127522038Y-98752038D01*
X127411595Y-98886613D01*
X127329528Y-99040149D01*
X127278992Y-99206745D01*
X127261928Y-99379999D01*
X127261928Y-100620001D01*
X127278992Y-100793255D01*
X127329528Y-100959851D01*
X127411595Y-101113387D01*
X127522038Y-101247962D01*
X127656613Y-101358405D01*
X127810149Y-101440472D01*
X127976745Y-101491008D01*
X128149999Y-101508072D01*
X129850001Y-101508072D01*
X130023255Y-101491008D01*
X130189851Y-101440472D01*
X130343387Y-101358405D01*
X130477962Y-101247962D01*
X130588405Y-101113387D01*
X130670472Y-100959851D01*
X130721008Y-100793255D01*
X130738072Y-100620001D01*
X130738072Y-100617540D01*
X130756534Y-100595044D01*
X132261928Y-99089650D01*
X132261928Y-99750000D01*
X132274188Y-99874482D01*
X132310498Y-99994180D01*
X132369463Y-100104494D01*
X132415001Y-100159982D01*
X132415001Y-100306522D01*
X132410719Y-100350000D01*
X132427805Y-100523490D01*
X132478412Y-100690313D01*
X132560590Y-100844059D01*
X132643468Y-100945046D01*
X132643471Y-100945049D01*
X132671184Y-100978817D01*
X132704951Y-101006529D01*
X133211928Y-101513507D01*
X133211928Y-101558291D01*
X133159174Y-101563487D01*
X133015913Y-101606944D01*
X132883884Y-101677516D01*
X132768159Y-101772489D01*
X132744356Y-101801493D01*
X132463993Y-102081856D01*
X132434989Y-102105659D01*
X132380385Y-102172195D01*
X132340016Y-102221384D01*
X132284326Y-102325572D01*
X132269444Y-102353414D01*
X132225987Y-102496675D01*
X132214990Y-102608328D01*
X132214990Y-102608338D01*
X132211314Y-102645660D01*
X132214990Y-102682983D01*
X132214991Y-107228706D01*
X132110580Y-107355931D01*
X132028402Y-107509677D01*
X131977795Y-107676500D01*
X131960709Y-107849990D01*
X131977795Y-108023480D01*
X132028402Y-108190303D01*
X132110580Y-108344049D01*
X132193458Y-108445036D01*
X132661928Y-108913506D01*
X132661928Y-109243750D01*
X132671408Y-109340000D01*
X124660000Y-109340000D01*
X124660000Y-105779872D01*
X126765000Y-105779872D01*
X126765000Y-106220128D01*
X126850890Y-106651925D01*
X127019369Y-107058669D01*
X127263962Y-107424729D01*
X127575271Y-107736038D01*
X127941331Y-107980631D01*
X128348075Y-108149110D01*
X128779872Y-108235000D01*
X129220128Y-108235000D01*
X129651925Y-108149110D01*
X130058669Y-107980631D01*
X130424729Y-107736038D01*
X130736038Y-107424729D01*
X130980631Y-107058669D01*
X131149110Y-106651925D01*
X131235000Y-106220128D01*
X131235000Y-105779872D01*
X131149110Y-105348075D01*
X130980631Y-104941331D01*
X130736038Y-104575271D01*
X130424729Y-104263962D01*
X130058669Y-104019369D01*
X129651925Y-103850890D01*
X129220128Y-103765000D01*
X128779872Y-103765000D01*
X128348075Y-103850890D01*
X127941331Y-104019369D01*
X127575271Y-104263962D01*
X127263962Y-104575271D01*
X127019369Y-104941331D01*
X126850890Y-105348075D01*
X126765000Y-105779872D01*
X124660000Y-105779872D01*
X124660000Y-97099969D01*
X127308698Y-97099969D01*
X127429754Y-97333000D01*
X128873000Y-97333000D01*
X128873000Y-96109414D01*
X129127000Y-96109414D01*
X129127000Y-97333000D01*
X130570246Y-97333000D01*
X130691302Y-97099969D01*
X130673588Y-97007498D01*
X130557571Y-96734563D01*
X130390536Y-96489506D01*
X130178903Y-96281744D01*
X129930804Y-96119262D01*
X129655773Y-96008304D01*
X129364380Y-95953134D01*
X129127000Y-96109414D01*
X128873000Y-96109414D01*
X128635620Y-95953134D01*
X128344227Y-96008304D01*
X128069196Y-96119262D01*
X127821097Y-96281744D01*
X127609464Y-96489506D01*
X127442429Y-96734563D01*
X127326412Y-97007498D01*
X127308698Y-97099969D01*
X124660000Y-97099969D01*
X124660000Y-89779872D01*
X126145000Y-89779872D01*
X126145000Y-90220128D01*
X126230890Y-90651925D01*
X126399369Y-91058669D01*
X126643962Y-91424729D01*
X126955271Y-91736038D01*
X127321331Y-91980631D01*
X127728075Y-92149110D01*
X128159872Y-92235000D01*
X128600128Y-92235000D01*
X129031925Y-92149110D01*
X129438669Y-91980631D01*
X129804729Y-91736038D01*
X130116038Y-91424729D01*
X130360631Y-91058669D01*
X130529110Y-90651925D01*
X130615000Y-90220128D01*
X130615000Y-89779872D01*
X147765000Y-89779872D01*
X147765000Y-90220128D01*
X147850890Y-90651925D01*
X148019369Y-91058669D01*
X148263962Y-91424729D01*
X148575271Y-91736038D01*
X148941331Y-91980631D01*
X149348075Y-92149110D01*
X149779872Y-92235000D01*
X150220128Y-92235000D01*
X150651925Y-92149110D01*
X151058669Y-91980631D01*
X151424729Y-91736038D01*
X151736038Y-91424729D01*
X151980631Y-91058669D01*
X152149110Y-90651925D01*
X152235000Y-90220128D01*
X152235000Y-89779872D01*
X152149110Y-89348075D01*
X151980631Y-88941331D01*
X151736038Y-88575271D01*
X151424729Y-88263962D01*
X151058669Y-88019369D01*
X150651925Y-87850890D01*
X150220128Y-87765000D01*
X149779872Y-87765000D01*
X149348075Y-87850890D01*
X148941331Y-88019369D01*
X148575271Y-88263962D01*
X148263962Y-88575271D01*
X148019369Y-88941331D01*
X147850890Y-89348075D01*
X147765000Y-89779872D01*
X130615000Y-89779872D01*
X130529110Y-89348075D01*
X130360631Y-88941331D01*
X130116038Y-88575271D01*
X129804729Y-88263962D01*
X129438669Y-88019369D01*
X129031925Y-87850890D01*
X128600128Y-87765000D01*
X128159872Y-87765000D01*
X127728075Y-87850890D01*
X127321331Y-88019369D01*
X126955271Y-88263962D01*
X126643962Y-88575271D01*
X126399369Y-88941331D01*
X126230890Y-89348075D01*
X126145000Y-89779872D01*
X124660000Y-89779872D01*
X124660000Y-86660000D01*
X153340000Y-86660000D01*
X153340001Y-109340000D01*
G36*
X134127000Y-106998000D02*
G01*
X134147000Y-106998000D01*
X134147000Y-107252000D01*
X134127000Y-107252000D01*
X134127000Y-107272000D01*
X133873000Y-107272000D01*
X133873000Y-107252000D01*
X133853000Y-107252000D01*
X133853000Y-106998000D01*
X133873000Y-106998000D01*
X133873000Y-106978000D01*
X134127000Y-106978000D01*
X134127000Y-106998000D01*
G37*
X134127000Y-106998000D02*
X134147000Y-106998000D01*
X134147000Y-107252000D01*
X134127000Y-107252000D01*
X134127000Y-107272000D01*
X133873000Y-107272000D01*
X133873000Y-107252000D01*
X133853000Y-107252000D01*
X133853000Y-106998000D01*
X133873000Y-106998000D01*
X133873000Y-106978000D01*
X134127000Y-106978000D01*
X134127000Y-106998000D01*
G36*
X139277000Y-95523000D02*
G01*
X139297000Y-95523000D01*
X139297000Y-95777000D01*
X139277000Y-95777000D01*
X139277000Y-96501250D01*
X139435750Y-96660000D01*
X139550000Y-96663072D01*
X139674482Y-96650812D01*
X139794180Y-96614502D01*
X139815002Y-96603372D01*
X139815001Y-102515197D01*
X138504236Y-103825962D01*
X138419180Y-103780498D01*
X138299482Y-103744188D01*
X138175000Y-103731928D01*
X137525000Y-103731928D01*
X137400518Y-103744188D01*
X137280820Y-103780498D01*
X137170506Y-103839463D01*
X137073815Y-103918815D01*
X136994463Y-104015506D01*
X136935498Y-104125820D01*
X136906929Y-104220000D01*
X136893071Y-104220000D01*
X136864502Y-104125820D01*
X136805537Y-104015506D01*
X136726185Y-103918815D01*
X136629494Y-103839463D01*
X136519180Y-103780498D01*
X136399482Y-103744188D01*
X136275000Y-103731928D01*
X135625000Y-103731928D01*
X135500518Y-103744188D01*
X135380820Y-103780498D01*
X135299412Y-103824012D01*
X135325812Y-103736982D01*
X135338072Y-103612500D01*
X135335000Y-103410750D01*
X135176250Y-103252000D01*
X134127000Y-103252000D01*
X134127000Y-103272000D01*
X133873000Y-103272000D01*
X133873000Y-103252000D01*
X133853000Y-103252000D01*
X133853000Y-103072490D01*
X135850188Y-103072490D01*
X135887510Y-103076166D01*
X135924832Y-103072490D01*
X135924843Y-103072490D01*
X136036496Y-103061493D01*
X136179757Y-103018036D01*
X136311786Y-102947464D01*
X136427511Y-102852491D01*
X136451313Y-102823488D01*
X136949230Y-102325572D01*
X137456250Y-102325572D01*
X137628285Y-102308628D01*
X137793709Y-102258447D01*
X137946164Y-102176958D01*
X138079792Y-102067292D01*
X138189458Y-101933664D01*
X138270947Y-101781209D01*
X138321128Y-101615785D01*
X138338072Y-101443750D01*
X138338072Y-100956250D01*
X138321128Y-100784215D01*
X138270947Y-100618791D01*
X138189458Y-100466336D01*
X138079792Y-100332708D01*
X137994244Y-100262500D01*
X138079792Y-100192292D01*
X138189458Y-100058664D01*
X138270947Y-99906209D01*
X138321128Y-99740785D01*
X138338072Y-99568750D01*
X138338072Y-99081250D01*
X138321128Y-98909215D01*
X138270947Y-98743791D01*
X138189458Y-98591336D01*
X138079792Y-98457708D01*
X137946164Y-98348042D01*
X137793709Y-98266553D01*
X137628285Y-98216372D01*
X137456250Y-98199428D01*
X136543750Y-98199428D01*
X136371715Y-98216372D01*
X136206291Y-98266553D01*
X136053836Y-98348042D01*
X136021577Y-98374516D01*
X135954494Y-98319463D01*
X135844180Y-98260498D01*
X135724482Y-98224188D01*
X135600000Y-98211928D01*
X135363507Y-98211928D01*
X134885000Y-97733422D01*
X134885000Y-97058215D01*
X134937500Y-96994244D01*
X135007708Y-97079792D01*
X135141336Y-97189458D01*
X135293791Y-97270947D01*
X135459215Y-97321128D01*
X135631250Y-97338072D01*
X136118750Y-97338072D01*
X136290785Y-97321128D01*
X136456209Y-97270947D01*
X136608664Y-97189458D01*
X136742292Y-97079792D01*
X136851958Y-96946164D01*
X136933447Y-96793709D01*
X136943673Y-96760000D01*
X137612678Y-96760000D01*
X137650000Y-96763676D01*
X137687322Y-96760000D01*
X137687333Y-96760000D01*
X137798986Y-96749003D01*
X137942247Y-96705546D01*
X138021709Y-96663072D01*
X138200000Y-96663072D01*
X138324482Y-96650812D01*
X138444180Y-96614502D01*
X138475000Y-96598028D01*
X138505820Y-96614502D01*
X138625518Y-96650812D01*
X138750000Y-96663072D01*
X138864250Y-96660000D01*
X139023000Y-96501250D01*
X139023000Y-95777000D01*
X139003000Y-95777000D01*
X139003000Y-95523000D01*
X139023000Y-95523000D01*
X139023000Y-95503000D01*
X139277000Y-95503000D01*
X139277000Y-95523000D01*
G37*
X139277000Y-95523000D02*
X139297000Y-95523000D01*
X139297000Y-95777000D01*
X139277000Y-95777000D01*
X139277000Y-96501250D01*
X139435750Y-96660000D01*
X139550000Y-96663072D01*
X139674482Y-96650812D01*
X139794180Y-96614502D01*
X139815002Y-96603372D01*
X139815001Y-102515197D01*
X138504236Y-103825962D01*
X138419180Y-103780498D01*
X138299482Y-103744188D01*
X138175000Y-103731928D01*
X137525000Y-103731928D01*
X137400518Y-103744188D01*
X137280820Y-103780498D01*
X137170506Y-103839463D01*
X137073815Y-103918815D01*
X136994463Y-104015506D01*
X136935498Y-104125820D01*
X136906929Y-104220000D01*
X136893071Y-104220000D01*
X136864502Y-104125820D01*
X136805537Y-104015506D01*
X136726185Y-103918815D01*
X136629494Y-103839463D01*
X136519180Y-103780498D01*
X136399482Y-103744188D01*
X136275000Y-103731928D01*
X135625000Y-103731928D01*
X135500518Y-103744188D01*
X135380820Y-103780498D01*
X135299412Y-103824012D01*
X135325812Y-103736982D01*
X135338072Y-103612500D01*
X135335000Y-103410750D01*
X135176250Y-103252000D01*
X134127000Y-103252000D01*
X134127000Y-103272000D01*
X133873000Y-103272000D01*
X133873000Y-103252000D01*
X133853000Y-103252000D01*
X133853000Y-103072490D01*
X135850188Y-103072490D01*
X135887510Y-103076166D01*
X135924832Y-103072490D01*
X135924843Y-103072490D01*
X136036496Y-103061493D01*
X136179757Y-103018036D01*
X136311786Y-102947464D01*
X136427511Y-102852491D01*
X136451313Y-102823488D01*
X136949230Y-102325572D01*
X137456250Y-102325572D01*
X137628285Y-102308628D01*
X137793709Y-102258447D01*
X137946164Y-102176958D01*
X138079792Y-102067292D01*
X138189458Y-101933664D01*
X138270947Y-101781209D01*
X138321128Y-101615785D01*
X138338072Y-101443750D01*
X138338072Y-100956250D01*
X138321128Y-100784215D01*
X138270947Y-100618791D01*
X138189458Y-100466336D01*
X138079792Y-100332708D01*
X137994244Y-100262500D01*
X138079792Y-100192292D01*
X138189458Y-100058664D01*
X138270947Y-99906209D01*
X138321128Y-99740785D01*
X138338072Y-99568750D01*
X138338072Y-99081250D01*
X138321128Y-98909215D01*
X138270947Y-98743791D01*
X138189458Y-98591336D01*
X138079792Y-98457708D01*
X137946164Y-98348042D01*
X137793709Y-98266553D01*
X137628285Y-98216372D01*
X137456250Y-98199428D01*
X136543750Y-98199428D01*
X136371715Y-98216372D01*
X136206291Y-98266553D01*
X136053836Y-98348042D01*
X136021577Y-98374516D01*
X135954494Y-98319463D01*
X135844180Y-98260498D01*
X135724482Y-98224188D01*
X135600000Y-98211928D01*
X135363507Y-98211928D01*
X134885000Y-97733422D01*
X134885000Y-97058215D01*
X134937500Y-96994244D01*
X135007708Y-97079792D01*
X135141336Y-97189458D01*
X135293791Y-97270947D01*
X135459215Y-97321128D01*
X135631250Y-97338072D01*
X136118750Y-97338072D01*
X136290785Y-97321128D01*
X136456209Y-97270947D01*
X136608664Y-97189458D01*
X136742292Y-97079792D01*
X136851958Y-96946164D01*
X136933447Y-96793709D01*
X136943673Y-96760000D01*
X137612678Y-96760000D01*
X137650000Y-96763676D01*
X137687322Y-96760000D01*
X137687333Y-96760000D01*
X137798986Y-96749003D01*
X137942247Y-96705546D01*
X138021709Y-96663072D01*
X138200000Y-96663072D01*
X138324482Y-96650812D01*
X138444180Y-96614502D01*
X138475000Y-96598028D01*
X138505820Y-96614502D01*
X138625518Y-96650812D01*
X138750000Y-96663072D01*
X138864250Y-96660000D01*
X139023000Y-96501250D01*
X139023000Y-95777000D01*
X139003000Y-95777000D01*
X139003000Y-95523000D01*
X139023000Y-95523000D01*
X139023000Y-95503000D01*
X139277000Y-95503000D01*
X139277000Y-95523000D01*
G36*
X143019463Y-97754494D02*
G01*
X143098815Y-97851185D01*
X143153848Y-97896349D01*
X142949724Y-98100474D01*
X142926250Y-98077000D01*
X142127000Y-98077000D01*
X142127000Y-98097000D01*
X141873000Y-98097000D01*
X141873000Y-98077000D01*
X141853000Y-98077000D01*
X141853000Y-97823000D01*
X141873000Y-97823000D01*
X141873000Y-97803000D01*
X142127000Y-97803000D01*
X142127000Y-97823000D01*
X142926250Y-97823000D01*
X143010857Y-97738393D01*
X143019463Y-97754494D01*
G37*
X143019463Y-97754494D02*
X143098815Y-97851185D01*
X143153848Y-97896349D01*
X142949724Y-98100474D01*
X142926250Y-98077000D01*
X142127000Y-98077000D01*
X142127000Y-98097000D01*
X141873000Y-98097000D01*
X141873000Y-98077000D01*
X141853000Y-98077000D01*
X141853000Y-97823000D01*
X141873000Y-97823000D01*
X141873000Y-97803000D01*
X142127000Y-97803000D01*
X142127000Y-97823000D01*
X142926250Y-97823000D01*
X143010857Y-97738393D01*
X143019463Y-97754494D01*
M02*
