G04 #@! TF.GenerationSoftware,KiCad,Pcbnew,(5.1.5)-3*
G04 #@! TF.CreationDate,2020-06-03T08:16:42+02:00*
G04 #@! TF.ProjectId,LowBatAlarm,4c6f7742-6174-4416-9c61-726d2e6b6963,rev?*
G04 #@! TF.SameCoordinates,Original*
G04 #@! TF.FileFunction,Legend,Top*
G04 #@! TF.FilePolarity,Positive*
%FSLAX46Y46*%
G04 Gerber Fmt 4.6, Leading zero omitted, Abs format (unit mm)*
G04 Created by KiCad (PCBNEW (5.1.5)-3) date 2020-06-03 08:16:42*
%MOMM*%
%LPD*%
G04 APERTURE LIST*
%ADD10C,0.150000*%
%ADD11C,0.120000*%
G04 APERTURE END LIST*
D10*
X146190476Y-92928571D02*
X146333333Y-92976190D01*
X146380952Y-93023809D01*
X146428571Y-93119047D01*
X146428571Y-93261904D01*
X146380952Y-93357142D01*
X146333333Y-93404761D01*
X146238095Y-93452380D01*
X145857142Y-93452380D01*
X145857142Y-92452380D01*
X146190476Y-92452380D01*
X146285714Y-92500000D01*
X146333333Y-92547619D01*
X146380952Y-92642857D01*
X146380952Y-92738095D01*
X146333333Y-92833333D01*
X146285714Y-92880952D01*
X146190476Y-92928571D01*
X145857142Y-92928571D01*
X147285714Y-92785714D02*
X147285714Y-93452380D01*
X146857142Y-92785714D02*
X146857142Y-93309523D01*
X146904761Y-93404761D01*
X147000000Y-93452380D01*
X147142857Y-93452380D01*
X147238095Y-93404761D01*
X147285714Y-93357142D01*
X147666666Y-92785714D02*
X148190476Y-92785714D01*
X147666666Y-93452380D01*
X148190476Y-93452380D01*
X148476190Y-92785714D02*
X149000000Y-92785714D01*
X148476190Y-93452380D01*
X149000000Y-93452380D01*
X149380952Y-93071428D02*
X150142857Y-93071428D01*
X146190476Y-102928571D02*
X146333333Y-102976190D01*
X146380952Y-103023809D01*
X146428571Y-103119047D01*
X146428571Y-103261904D01*
X146380952Y-103357142D01*
X146333333Y-103404761D01*
X146238095Y-103452380D01*
X145857142Y-103452380D01*
X145857142Y-102452380D01*
X146190476Y-102452380D01*
X146285714Y-102500000D01*
X146333333Y-102547619D01*
X146380952Y-102642857D01*
X146380952Y-102738095D01*
X146333333Y-102833333D01*
X146285714Y-102880952D01*
X146190476Y-102928571D01*
X145857142Y-102928571D01*
X147285714Y-102785714D02*
X147285714Y-103452380D01*
X146857142Y-102785714D02*
X146857142Y-103309523D01*
X146904761Y-103404761D01*
X147000000Y-103452380D01*
X147142857Y-103452380D01*
X147238095Y-103404761D01*
X147285714Y-103357142D01*
X147666666Y-102785714D02*
X148190476Y-102785714D01*
X147666666Y-103452380D01*
X148190476Y-103452380D01*
X148476190Y-102785714D02*
X149000000Y-102785714D01*
X148476190Y-103452380D01*
X149000000Y-103452380D01*
X149380952Y-103071428D02*
X150142857Y-103071428D01*
X149761904Y-103452380D02*
X149761904Y-102690476D01*
X125714285Y-92928571D02*
X125857142Y-92976190D01*
X125904761Y-93023809D01*
X125952380Y-93119047D01*
X125952380Y-93261904D01*
X125904761Y-93357142D01*
X125857142Y-93404761D01*
X125761904Y-93452380D01*
X125380952Y-93452380D01*
X125380952Y-92452380D01*
X125714285Y-92452380D01*
X125809523Y-92500000D01*
X125857142Y-92547619D01*
X125904761Y-92642857D01*
X125904761Y-92738095D01*
X125857142Y-92833333D01*
X125809523Y-92880952D01*
X125714285Y-92928571D01*
X125380952Y-92928571D01*
X126809523Y-93452380D02*
X126809523Y-92928571D01*
X126761904Y-92833333D01*
X126666666Y-92785714D01*
X126476190Y-92785714D01*
X126380952Y-92833333D01*
X126809523Y-93404761D02*
X126714285Y-93452380D01*
X126476190Y-93452380D01*
X126380952Y-93404761D01*
X126333333Y-93309523D01*
X126333333Y-93214285D01*
X126380952Y-93119047D01*
X126476190Y-93071428D01*
X126714285Y-93071428D01*
X126809523Y-93023809D01*
X127142857Y-92785714D02*
X127523809Y-92785714D01*
X127285714Y-92452380D02*
X127285714Y-93309523D01*
X127333333Y-93404761D01*
X127428571Y-93452380D01*
X127523809Y-93452380D01*
X127857142Y-93071428D02*
X128619047Y-93071428D01*
X125714285Y-102928571D02*
X125857142Y-102976190D01*
X125904761Y-103023809D01*
X125952380Y-103119047D01*
X125952380Y-103261904D01*
X125904761Y-103357142D01*
X125857142Y-103404761D01*
X125761904Y-103452380D01*
X125380952Y-103452380D01*
X125380952Y-102452380D01*
X125714285Y-102452380D01*
X125809523Y-102500000D01*
X125857142Y-102547619D01*
X125904761Y-102642857D01*
X125904761Y-102738095D01*
X125857142Y-102833333D01*
X125809523Y-102880952D01*
X125714285Y-102928571D01*
X125380952Y-102928571D01*
X126809523Y-103452380D02*
X126809523Y-102928571D01*
X126761904Y-102833333D01*
X126666666Y-102785714D01*
X126476190Y-102785714D01*
X126380952Y-102833333D01*
X126809523Y-103404761D02*
X126714285Y-103452380D01*
X126476190Y-103452380D01*
X126380952Y-103404761D01*
X126333333Y-103309523D01*
X126333333Y-103214285D01*
X126380952Y-103119047D01*
X126476190Y-103071428D01*
X126714285Y-103071428D01*
X126809523Y-103023809D01*
X127142857Y-102785714D02*
X127523809Y-102785714D01*
X127285714Y-102452380D02*
X127285714Y-103309523D01*
X127333333Y-103404761D01*
X127428571Y-103452380D01*
X127523809Y-103452380D01*
X127857142Y-103071428D02*
X128619047Y-103071428D01*
X128238095Y-103452380D02*
X128238095Y-102690476D01*
X132476190Y-88103571D02*
X132619047Y-88151190D01*
X132666666Y-88198809D01*
X132714285Y-88294047D01*
X132714285Y-88436904D01*
X132666666Y-88532142D01*
X132619047Y-88579761D01*
X132523809Y-88627380D01*
X132142857Y-88627380D01*
X132142857Y-87627380D01*
X132476190Y-87627380D01*
X132571428Y-87675000D01*
X132619047Y-87722619D01*
X132666666Y-87817857D01*
X132666666Y-87913095D01*
X132619047Y-88008333D01*
X132571428Y-88055952D01*
X132476190Y-88103571D01*
X132142857Y-88103571D01*
X133571428Y-88627380D02*
X133571428Y-88103571D01*
X133523809Y-88008333D01*
X133428571Y-87960714D01*
X133238095Y-87960714D01*
X133142857Y-88008333D01*
X133571428Y-88579761D02*
X133476190Y-88627380D01*
X133238095Y-88627380D01*
X133142857Y-88579761D01*
X133095238Y-88484523D01*
X133095238Y-88389285D01*
X133142857Y-88294047D01*
X133238095Y-88246428D01*
X133476190Y-88246428D01*
X133571428Y-88198809D01*
X133904761Y-87960714D02*
X134285714Y-87960714D01*
X134047619Y-87627380D02*
X134047619Y-88484523D01*
X134095238Y-88579761D01*
X134190476Y-88627380D01*
X134285714Y-88627380D01*
X134619047Y-88627380D02*
X134619047Y-87960714D01*
X134619047Y-88055952D02*
X134666666Y-88008333D01*
X134761904Y-87960714D01*
X134904761Y-87960714D01*
X135000000Y-88008333D01*
X135047619Y-88103571D01*
X135047619Y-88627380D01*
X135047619Y-88103571D02*
X135095238Y-88008333D01*
X135190476Y-87960714D01*
X135333333Y-87960714D01*
X135428571Y-88008333D01*
X135476190Y-88103571D01*
X135476190Y-88627380D01*
X136095238Y-88627380D02*
X136000000Y-88579761D01*
X135952380Y-88532142D01*
X135904761Y-88436904D01*
X135904761Y-88151190D01*
X135952380Y-88055952D01*
X136000000Y-88008333D01*
X136095238Y-87960714D01*
X136238095Y-87960714D01*
X136333333Y-88008333D01*
X136380952Y-88055952D01*
X136428571Y-88151190D01*
X136428571Y-88436904D01*
X136380952Y-88532142D01*
X136333333Y-88579761D01*
X136238095Y-88627380D01*
X136095238Y-88627380D01*
X136857142Y-87960714D02*
X136857142Y-88627380D01*
X136857142Y-88055952D02*
X136904761Y-88008333D01*
X137000000Y-87960714D01*
X137142857Y-87960714D01*
X137238095Y-88008333D01*
X137285714Y-88103571D01*
X137285714Y-88627380D01*
X137761904Y-88627380D02*
X137761904Y-87960714D01*
X137761904Y-87627380D02*
X137714285Y-87675000D01*
X137761904Y-87722619D01*
X137809523Y-87675000D01*
X137761904Y-87627380D01*
X137761904Y-87722619D01*
X138095238Y-87960714D02*
X138476190Y-87960714D01*
X138238095Y-87627380D02*
X138238095Y-88484523D01*
X138285714Y-88579761D01*
X138380952Y-88627380D01*
X138476190Y-88627380D01*
X138952380Y-88627380D02*
X138857142Y-88579761D01*
X138809523Y-88532142D01*
X138761904Y-88436904D01*
X138761904Y-88151190D01*
X138809523Y-88055952D01*
X138857142Y-88008333D01*
X138952380Y-87960714D01*
X139095238Y-87960714D01*
X139190476Y-88008333D01*
X139238095Y-88055952D01*
X139285714Y-88151190D01*
X139285714Y-88436904D01*
X139238095Y-88532142D01*
X139190476Y-88579761D01*
X139095238Y-88627380D01*
X138952380Y-88627380D01*
X139714285Y-88627380D02*
X139714285Y-87960714D01*
X139714285Y-88151190D02*
X139761904Y-88055952D01*
X139809523Y-88008333D01*
X139904761Y-87960714D01*
X140000000Y-87960714D01*
X131428571Y-89325000D02*
X131333333Y-89277380D01*
X131190476Y-89277380D01*
X131047619Y-89325000D01*
X130952380Y-89420238D01*
X130904761Y-89515476D01*
X130857142Y-89705952D01*
X130857142Y-89848809D01*
X130904761Y-90039285D01*
X130952380Y-90134523D01*
X131047619Y-90229761D01*
X131190476Y-90277380D01*
X131285714Y-90277380D01*
X131428571Y-90229761D01*
X131476190Y-90182142D01*
X131476190Y-89848809D01*
X131285714Y-89848809D01*
X132285714Y-90229761D02*
X132190476Y-90277380D01*
X132000000Y-90277380D01*
X131904761Y-90229761D01*
X131857142Y-90134523D01*
X131857142Y-89753571D01*
X131904761Y-89658333D01*
X132000000Y-89610714D01*
X132190476Y-89610714D01*
X132285714Y-89658333D01*
X132333333Y-89753571D01*
X132333333Y-89848809D01*
X131857142Y-89944047D01*
X132761904Y-90277380D02*
X132761904Y-89610714D01*
X132761904Y-89801190D02*
X132809523Y-89705952D01*
X132857142Y-89658333D01*
X132952380Y-89610714D01*
X133047619Y-89610714D01*
X133238095Y-89610714D02*
X133619047Y-89610714D01*
X133380952Y-89277380D02*
X133380952Y-90134523D01*
X133428571Y-90229761D01*
X133523809Y-90277380D01*
X133619047Y-90277380D01*
X135190476Y-90277380D02*
X134714285Y-90277380D01*
X134714285Y-89277380D01*
X135952380Y-90277380D02*
X135952380Y-89753571D01*
X135904761Y-89658333D01*
X135809523Y-89610714D01*
X135619047Y-89610714D01*
X135523809Y-89658333D01*
X135952380Y-90229761D02*
X135857142Y-90277380D01*
X135619047Y-90277380D01*
X135523809Y-90229761D01*
X135476190Y-90134523D01*
X135476190Y-90039285D01*
X135523809Y-89944047D01*
X135619047Y-89896428D01*
X135857142Y-89896428D01*
X135952380Y-89848809D01*
X136857142Y-89610714D02*
X136857142Y-90277380D01*
X136428571Y-89610714D02*
X136428571Y-90134523D01*
X136476190Y-90229761D01*
X136571428Y-90277380D01*
X136714285Y-90277380D01*
X136809523Y-90229761D01*
X136857142Y-90182142D01*
X137333333Y-90277380D02*
X137333333Y-89610714D01*
X137333333Y-89801190D02*
X137380952Y-89705952D01*
X137428571Y-89658333D01*
X137523809Y-89610714D01*
X137619047Y-89610714D01*
X137952380Y-90277380D02*
X137952380Y-89610714D01*
X137952380Y-89277380D02*
X137904761Y-89325000D01*
X137952380Y-89372619D01*
X138000000Y-89325000D01*
X137952380Y-89277380D01*
X137952380Y-89372619D01*
X138285714Y-89610714D02*
X138666666Y-89610714D01*
X138428571Y-89277380D02*
X138428571Y-90134523D01*
X138476190Y-90229761D01*
X138571428Y-90277380D01*
X138666666Y-90277380D01*
X138952380Y-90229761D02*
X139047619Y-90277380D01*
X139238095Y-90277380D01*
X139333333Y-90229761D01*
X139380952Y-90134523D01*
X139380952Y-90086904D01*
X139333333Y-89991666D01*
X139238095Y-89944047D01*
X139095238Y-89944047D01*
X139000000Y-89896428D01*
X138952380Y-89801190D01*
X138952380Y-89753571D01*
X139000000Y-89658333D01*
X139095238Y-89610714D01*
X139238095Y-89610714D01*
X139333333Y-89658333D01*
X140190476Y-90229761D02*
X140095238Y-90277380D01*
X139904761Y-90277380D01*
X139809523Y-90229761D01*
X139761904Y-90134523D01*
X139761904Y-89753571D01*
X139809523Y-89658333D01*
X139904761Y-89610714D01*
X140095238Y-89610714D01*
X140190476Y-89658333D01*
X140238095Y-89753571D01*
X140238095Y-89848809D01*
X139761904Y-89944047D01*
X140666666Y-89610714D02*
X140666666Y-90277380D01*
X140666666Y-89705952D02*
X140714285Y-89658333D01*
X140809523Y-89610714D01*
X140952380Y-89610714D01*
X141047619Y-89658333D01*
X141095238Y-89753571D01*
X141095238Y-90277380D01*
D11*
X143321078Y-99290000D02*
X142803922Y-99290000D01*
X143321078Y-100710000D02*
X142803922Y-100710000D01*
X136290000Y-100003922D02*
X136290000Y-100521078D01*
X137710000Y-100003922D02*
X137710000Y-100521078D01*
X141350000Y-108400000D02*
X141350000Y-103000000D01*
X144650000Y-108400000D02*
X144650000Y-103000000D01*
X141350000Y-108400000D02*
X144650000Y-108400000D01*
X132670000Y-101060000D02*
X132670000Y-99600000D01*
X135830000Y-101060000D02*
X135830000Y-98900000D01*
X135830000Y-101060000D02*
X134900000Y-101060000D01*
X132670000Y-101060000D02*
X133600000Y-101060000D01*
X135390000Y-105410000D02*
X135390000Y-107840000D01*
X138460000Y-107170000D02*
X138460000Y-105410000D01*
X134710000Y-108321078D02*
X134710000Y-107803922D01*
X133290000Y-108321078D02*
X133290000Y-107803922D01*
X134710000Y-104321078D02*
X134710000Y-103803922D01*
X133290000Y-104321078D02*
X133290000Y-103803922D01*
X134678922Y-94710000D02*
X135196078Y-94710000D01*
X134678922Y-93290000D02*
X135196078Y-93290000D01*
X134678922Y-96710000D02*
X135196078Y-96710000D01*
X134678922Y-95290000D02*
X135196078Y-95290000D01*
X139810000Y-95525000D02*
X139810000Y-94125000D01*
X137490000Y-94125000D02*
X137490000Y-96025000D01*
X142678922Y-92710000D02*
X143196078Y-92710000D01*
X142678922Y-91290000D02*
X143196078Y-91290000D01*
X143760000Y-98580000D02*
X142300000Y-98580000D01*
X143760000Y-95420000D02*
X141600000Y-95420000D01*
X143760000Y-95420000D02*
X143760000Y-96350000D01*
X143760000Y-98580000D02*
X143760000Y-97650000D01*
X146570000Y-96660000D02*
X145970000Y-96660000D01*
X146570000Y-98260000D02*
X146570000Y-96660000D01*
X145970000Y-98260000D02*
X146570000Y-98260000D01*
X146570000Y-99200000D02*
X145970000Y-99200000D01*
X146570000Y-100800000D02*
X146570000Y-99200000D01*
X145970000Y-100800000D02*
X146570000Y-100800000D01*
X151990000Y-97710000D02*
X150990000Y-97710000D01*
X151990000Y-99750000D02*
X150990000Y-99750000D01*
X150460000Y-97710000D02*
X150990000Y-97460000D01*
X150460000Y-99750000D02*
X150460000Y-97710000D01*
X150990000Y-100000000D02*
X150460000Y-99750000D01*
X150990000Y-97460000D02*
X151990000Y-97460000D01*
X150990000Y-100000000D02*
X150990000Y-97460000D01*
X151990000Y-100000000D02*
X150990000Y-100000000D01*
X147000000Y-101670000D02*
X151000000Y-101670000D01*
X145970000Y-96080000D02*
X145970000Y-101380000D01*
X151990000Y-96080000D02*
X145970000Y-96080000D01*
X151990000Y-101380000D02*
X151990000Y-96080000D01*
X145970000Y-101380000D02*
X151990000Y-101380000D01*
X126570000Y-96660000D02*
X125970000Y-96660000D01*
X126570000Y-98260000D02*
X126570000Y-96660000D01*
X125970000Y-98260000D02*
X126570000Y-98260000D01*
X126570000Y-99200000D02*
X125970000Y-99200000D01*
X126570000Y-100800000D02*
X126570000Y-99200000D01*
X125970000Y-100800000D02*
X126570000Y-100800000D01*
X131990000Y-97710000D02*
X130990000Y-97710000D01*
X131990000Y-99750000D02*
X130990000Y-99750000D01*
X130460000Y-97710000D02*
X130990000Y-97460000D01*
X130460000Y-99750000D02*
X130460000Y-97710000D01*
X130990000Y-100000000D02*
X130460000Y-99750000D01*
X130990000Y-97460000D02*
X131990000Y-97460000D01*
X130990000Y-100000000D02*
X130990000Y-97460000D01*
X131990000Y-100000000D02*
X130990000Y-100000000D01*
X127000000Y-101670000D02*
X131000000Y-101670000D01*
X125970000Y-96080000D02*
X125970000Y-101380000D01*
X131990000Y-96080000D02*
X125970000Y-96080000D01*
X131990000Y-101380000D02*
X131990000Y-96080000D01*
X125970000Y-101380000D02*
X131990000Y-101380000D01*
X141252500Y-94960000D02*
X143937500Y-94960000D01*
X141252500Y-93040000D02*
X141252500Y-94960000D01*
X143937500Y-93040000D02*
X141252500Y-93040000D01*
D10*
X142895833Y-102102380D02*
X142562500Y-101626190D01*
X142324404Y-102102380D02*
X142324404Y-101102380D01*
X142705357Y-101102380D01*
X142800595Y-101150000D01*
X142848214Y-101197619D01*
X142895833Y-101292857D01*
X142895833Y-101435714D01*
X142848214Y-101530952D01*
X142800595Y-101578571D01*
X142705357Y-101626190D01*
X142324404Y-101626190D01*
X143800595Y-101102380D02*
X143324404Y-101102380D01*
X143276785Y-101578571D01*
X143324404Y-101530952D01*
X143419642Y-101483333D01*
X143657738Y-101483333D01*
X143752976Y-101530952D01*
X143800595Y-101578571D01*
X143848214Y-101673809D01*
X143848214Y-101911904D01*
X143800595Y-102007142D01*
X143752976Y-102054761D01*
X143657738Y-102102380D01*
X143419642Y-102102380D01*
X143324404Y-102054761D01*
X143276785Y-102007142D01*
X139102380Y-100429166D02*
X138626190Y-100762500D01*
X139102380Y-101000595D02*
X138102380Y-101000595D01*
X138102380Y-100619642D01*
X138150000Y-100524404D01*
X138197619Y-100476785D01*
X138292857Y-100429166D01*
X138435714Y-100429166D01*
X138530952Y-100476785D01*
X138578571Y-100524404D01*
X138626190Y-100619642D01*
X138626190Y-101000595D01*
X138435714Y-99572023D02*
X139102380Y-99572023D01*
X138054761Y-99810119D02*
X138769047Y-100048214D01*
X138769047Y-99429166D01*
X140952380Y-105738095D02*
X139952380Y-105738095D01*
X139952380Y-105500000D01*
X140000000Y-105357142D01*
X140095238Y-105261904D01*
X140190476Y-105214285D01*
X140380952Y-105166666D01*
X140523809Y-105166666D01*
X140714285Y-105214285D01*
X140809523Y-105261904D01*
X140904761Y-105357142D01*
X140952380Y-105500000D01*
X140952380Y-105738095D01*
X139952380Y-104833333D02*
X139952380Y-104214285D01*
X140333333Y-104547619D01*
X140333333Y-104404761D01*
X140380952Y-104309523D01*
X140428571Y-104261904D01*
X140523809Y-104214285D01*
X140761904Y-104214285D01*
X140857142Y-104261904D01*
X140904761Y-104309523D01*
X140952380Y-104404761D01*
X140952380Y-104690476D01*
X140904761Y-104785714D01*
X140857142Y-104833333D01*
X137202380Y-101038095D02*
X136202380Y-101038095D01*
X136202380Y-100800000D01*
X136250000Y-100657142D01*
X136345238Y-100561904D01*
X136440476Y-100514285D01*
X136630952Y-100466666D01*
X136773809Y-100466666D01*
X136964285Y-100514285D01*
X137059523Y-100561904D01*
X137154761Y-100657142D01*
X137202380Y-100800000D01*
X137202380Y-101038095D01*
X136297619Y-100085714D02*
X136250000Y-100038095D01*
X136202380Y-99942857D01*
X136202380Y-99704761D01*
X136250000Y-99609523D01*
X136297619Y-99561904D01*
X136392857Y-99514285D01*
X136488095Y-99514285D01*
X136630952Y-99561904D01*
X137202380Y-100133333D01*
X137202380Y-99514285D01*
X133902380Y-107051904D02*
X134711904Y-107051904D01*
X134807142Y-107004285D01*
X134854761Y-106956666D01*
X134902380Y-106861428D01*
X134902380Y-106670952D01*
X134854761Y-106575714D01*
X134807142Y-106528095D01*
X134711904Y-106480476D01*
X133902380Y-106480476D01*
X133997619Y-106051904D02*
X133950000Y-106004285D01*
X133902380Y-105909047D01*
X133902380Y-105670952D01*
X133950000Y-105575714D01*
X133997619Y-105528095D01*
X134092857Y-105480476D01*
X134188095Y-105480476D01*
X134330952Y-105528095D01*
X134902380Y-106099523D01*
X134902380Y-105480476D01*
X132707142Y-108229166D02*
X132754761Y-108276785D01*
X132802380Y-108419642D01*
X132802380Y-108514880D01*
X132754761Y-108657738D01*
X132659523Y-108752976D01*
X132564285Y-108800595D01*
X132373809Y-108848214D01*
X132230952Y-108848214D01*
X132040476Y-108800595D01*
X131945238Y-108752976D01*
X131850000Y-108657738D01*
X131802380Y-108514880D01*
X131802380Y-108419642D01*
X131850000Y-108276785D01*
X131897619Y-108229166D01*
X131897619Y-107848214D02*
X131850000Y-107800595D01*
X131802380Y-107705357D01*
X131802380Y-107467261D01*
X131850000Y-107372023D01*
X131897619Y-107324404D01*
X131992857Y-107276785D01*
X132088095Y-107276785D01*
X132230952Y-107324404D01*
X132802380Y-107895833D01*
X132802380Y-107276785D01*
X132707142Y-104229166D02*
X132754761Y-104276785D01*
X132802380Y-104419642D01*
X132802380Y-104514880D01*
X132754761Y-104657738D01*
X132659523Y-104752976D01*
X132564285Y-104800595D01*
X132373809Y-104848214D01*
X132230952Y-104848214D01*
X132040476Y-104800595D01*
X131945238Y-104752976D01*
X131850000Y-104657738D01*
X131802380Y-104514880D01*
X131802380Y-104419642D01*
X131850000Y-104276785D01*
X131897619Y-104229166D01*
X132802380Y-103276785D02*
X132802380Y-103848214D01*
X132802380Y-103562500D02*
X131802380Y-103562500D01*
X131945238Y-103657738D01*
X132040476Y-103752976D01*
X132088095Y-103848214D01*
X134770833Y-92802380D02*
X134437500Y-92326190D01*
X134199404Y-92802380D02*
X134199404Y-91802380D01*
X134580357Y-91802380D01*
X134675595Y-91850000D01*
X134723214Y-91897619D01*
X134770833Y-91992857D01*
X134770833Y-92135714D01*
X134723214Y-92230952D01*
X134675595Y-92278571D01*
X134580357Y-92326190D01*
X134199404Y-92326190D01*
X135151785Y-91897619D02*
X135199404Y-91850000D01*
X135294642Y-91802380D01*
X135532738Y-91802380D01*
X135627976Y-91850000D01*
X135675595Y-91897619D01*
X135723214Y-91992857D01*
X135723214Y-92088095D01*
X135675595Y-92230952D01*
X135104166Y-92802380D01*
X135723214Y-92802380D01*
X134770833Y-94802380D02*
X134437500Y-94326190D01*
X134199404Y-94802380D02*
X134199404Y-93802380D01*
X134580357Y-93802380D01*
X134675595Y-93850000D01*
X134723214Y-93897619D01*
X134770833Y-93992857D01*
X134770833Y-94135714D01*
X134723214Y-94230952D01*
X134675595Y-94278571D01*
X134580357Y-94326190D01*
X134199404Y-94326190D01*
X135723214Y-94802380D02*
X135151785Y-94802380D01*
X135437500Y-94802380D02*
X135437500Y-93802380D01*
X135342261Y-93945238D01*
X135247023Y-94040476D01*
X135151785Y-94088095D01*
X136102380Y-95586904D02*
X136911904Y-95586904D01*
X137007142Y-95539285D01*
X137054761Y-95491666D01*
X137102380Y-95396428D01*
X137102380Y-95205952D01*
X137054761Y-95110714D01*
X137007142Y-95063095D01*
X136911904Y-95015476D01*
X136102380Y-95015476D01*
X137102380Y-94015476D02*
X137102380Y-94586904D01*
X137102380Y-94301190D02*
X136102380Y-94301190D01*
X136245238Y-94396428D01*
X136340476Y-94491666D01*
X136388095Y-94586904D01*
X142770833Y-90802380D02*
X142437500Y-90326190D01*
X142199404Y-90802380D02*
X142199404Y-89802380D01*
X142580357Y-89802380D01*
X142675595Y-89850000D01*
X142723214Y-89897619D01*
X142770833Y-89992857D01*
X142770833Y-90135714D01*
X142723214Y-90230952D01*
X142675595Y-90278571D01*
X142580357Y-90326190D01*
X142199404Y-90326190D01*
X143104166Y-89802380D02*
X143723214Y-89802380D01*
X143389880Y-90183333D01*
X143532738Y-90183333D01*
X143627976Y-90230952D01*
X143675595Y-90278571D01*
X143723214Y-90373809D01*
X143723214Y-90611904D01*
X143675595Y-90707142D01*
X143627976Y-90754761D01*
X143532738Y-90802380D01*
X143247023Y-90802380D01*
X143151785Y-90754761D01*
X143104166Y-90707142D01*
X142904761Y-95047619D02*
X142809523Y-95000000D01*
X142714285Y-94904761D01*
X142571428Y-94761904D01*
X142476190Y-94714285D01*
X142380952Y-94714285D01*
X142428571Y-94952380D02*
X142333333Y-94904761D01*
X142238095Y-94809523D01*
X142190476Y-94619047D01*
X142190476Y-94285714D01*
X142238095Y-94095238D01*
X142333333Y-94000000D01*
X142428571Y-93952380D01*
X142619047Y-93952380D01*
X142714285Y-94000000D01*
X142809523Y-94095238D01*
X142857142Y-94285714D01*
X142857142Y-94619047D01*
X142809523Y-94809523D01*
X142714285Y-94904761D01*
X142619047Y-94952380D01*
X142428571Y-94952380D01*
X143809523Y-94952380D02*
X143238095Y-94952380D01*
X143523809Y-94952380D02*
X143523809Y-93952380D01*
X143428571Y-94095238D01*
X143333333Y-94190476D01*
X143238095Y-94238095D01*
X144332380Y-99063333D02*
X145046666Y-99063333D01*
X145189523Y-99110952D01*
X145284761Y-99206190D01*
X145332380Y-99349047D01*
X145332380Y-99444285D01*
X144427619Y-98634761D02*
X144380000Y-98587142D01*
X144332380Y-98491904D01*
X144332380Y-98253809D01*
X144380000Y-98158571D01*
X144427619Y-98110952D01*
X144522857Y-98063333D01*
X144618095Y-98063333D01*
X144760952Y-98110952D01*
X145332380Y-98682380D01*
X145332380Y-98063333D01*
X124332380Y-99063333D02*
X125046666Y-99063333D01*
X125189523Y-99110952D01*
X125284761Y-99206190D01*
X125332380Y-99349047D01*
X125332380Y-99444285D01*
X125332380Y-98063333D02*
X125332380Y-98634761D01*
X125332380Y-98349047D02*
X124332380Y-98349047D01*
X124475238Y-98444285D01*
X124570476Y-98539523D01*
X124618095Y-98634761D01*
X128238095Y-102252380D02*
X128238095Y-101252380D01*
X128238095Y-101728571D02*
X128809523Y-101728571D01*
X128809523Y-102252380D02*
X128809523Y-101252380D01*
X129714285Y-101585714D02*
X129714285Y-102252380D01*
X129476190Y-101204761D02*
X129238095Y-101919047D01*
X129857142Y-101919047D01*
X149238095Y-102252380D02*
X149238095Y-101252380D01*
X149238095Y-101728571D02*
X149809523Y-101728571D01*
X149809523Y-102252380D02*
X149809523Y-101252380D01*
X150190476Y-101252380D02*
X150809523Y-101252380D01*
X150476190Y-101633333D01*
X150619047Y-101633333D01*
X150714285Y-101680952D01*
X150761904Y-101728571D01*
X150809523Y-101823809D01*
X150809523Y-102061904D01*
X150761904Y-102157142D01*
X150714285Y-102204761D01*
X150619047Y-102252380D01*
X150333333Y-102252380D01*
X150238095Y-102204761D01*
X150190476Y-102157142D01*
X127618095Y-86252380D02*
X127618095Y-85252380D01*
X127618095Y-85728571D02*
X128189523Y-85728571D01*
X128189523Y-86252380D02*
X128189523Y-85252380D01*
X128618095Y-85347619D02*
X128665714Y-85300000D01*
X128760952Y-85252380D01*
X128999047Y-85252380D01*
X129094285Y-85300000D01*
X129141904Y-85347619D01*
X129189523Y-85442857D01*
X129189523Y-85538095D01*
X129141904Y-85680952D01*
X128570476Y-86252380D01*
X129189523Y-86252380D01*
X149238095Y-86252380D02*
X149238095Y-85252380D01*
X149238095Y-85728571D02*
X149809523Y-85728571D01*
X149809523Y-86252380D02*
X149809523Y-85252380D01*
X150809523Y-86252380D02*
X150238095Y-86252380D01*
X150523809Y-86252380D02*
X150523809Y-85252380D01*
X150428571Y-85395238D01*
X150333333Y-85490476D01*
X150238095Y-85538095D01*
X142199404Y-92802380D02*
X142199404Y-91802380D01*
X142437500Y-91802380D01*
X142580357Y-91850000D01*
X142675595Y-91945238D01*
X142723214Y-92040476D01*
X142770833Y-92230952D01*
X142770833Y-92373809D01*
X142723214Y-92564285D01*
X142675595Y-92659523D01*
X142580357Y-92754761D01*
X142437500Y-92802380D01*
X142199404Y-92802380D01*
X143723214Y-92802380D02*
X143151785Y-92802380D01*
X143437500Y-92802380D02*
X143437500Y-91802380D01*
X143342261Y-91945238D01*
X143247023Y-92040476D01*
X143151785Y-92088095D01*
M02*
